<?xml version="1.0" standalone="no"?>
<!DOCTYPE svg PUBLIC "-//W3C//DTD SVG 20010904//EN"
 "http://www.w3.org/TR/2001/REC-SVG-20010904/DTD/svg10.dtd">
<svg version="1.0" xmlns="http://www.w3.org/2000/svg"
 width="862.000000pt" height="862.000000pt" viewBox="0 0 862.000000 862.000000"
 preserveAspectRatio="xMidYMid meet">
<metadata>
Created by potrace 1.14, written by Peter Selinger 2001-2017
</metadata>
<g transform="translate(0.000000,862.000000) scale(0.100000,-0.100000)"
fill="#000000" stroke="none">
<path d="M2 6588 c1 -1118 3 -2014 5 -1990 2 23 7 42 11 42 4 0 16 -14 27 -32
11 -20 20 -27 23 -19 2 7 -2 17 -9 22 -8 5 -10 9 -4 9 5 0 -1 7 -13 16 -29 20
-28 41 4 98 14 25 24 52 21 58 -3 7 -10 -2 -17 -19 -7 -18 -18 -33 -26 -33
-22 0 -17 20 11 42 30 23 33 48 6 48 -11 0 -23 5 -26 10 -3 6 2 10 12 10 22 0
24 40 4 64 -12 14 -10 16 8 16 11 0 20 -3 20 -7 -5 -29 2 -36 17 -15 22 32 35
27 18 -8 -9 -16 -13 -34 -9 -40 3 -5 3 -10 -2 -10 -4 0 -8 -22 -8 -50 0 -27 3
-50 6 -50 19 0 29 32 25 76 -4 38 -1 55 14 74 18 24 18 25 -6 47 -14 13 -34
23 -45 23 -23 0 -25 15 -4 24 9 3 18 -1 21 -9 4 -8 13 -15 21 -15 12 0 15 8
10 39 -2 22 -1 43 3 48 4 4 13 26 20 48 7 22 17 45 22 52 5 7 5 14 -2 18 -5 3
-10 13 -10 21 0 11 6 13 20 9 16 -5 20 -2 22 17 0 13 2 29 2 37 1 8 7 16 14
19 6 2 12 13 12 25 0 18 2 19 10 7 23 -35 -14 158 -41 211 -10 21 0 61 18 72
8 5 11 16 8 28 -4 11 -2 25 3 32 6 7 9 37 8 67 l-2 55 43 2 c23 1 47 4 53 8
12 7 13 42 2 47 -5 2 -12 15 -16 30 -5 21 -3 26 8 22 12 -5 13 1 4 36 -9 34
-8 44 3 51 9 6 10 9 2 9 -7 0 -17 -8 -22 -17 -8 -14 -10 0 -11 55 0 82 16 107
72 107 35 0 60 27 41 46 -8 8 -16 6 -32 -10 -12 -12 -25 -21 -31 -21 -16 0
-11 27 6 34 9 3 14 13 10 21 -3 8 2 22 12 31 9 10 15 28 14 41 -3 18 1 23 20
23 23 1 23 1 3 16 -12 9 -16 18 -10 22 6 4 16 23 22 42 11 29 11 36 -2 42 -17
10 -9 38 11 38 8 0 14 -9 14 -20 0 -23 4 -24 29 -10 15 8 18 18 14 54 -7 56
13 81 56 73 15 -3 33 -1 40 6 16 16 14 64 -5 71 -10 4 -13 13 -9 26 4 12 2 20
-5 20 -6 0 -10 6 -7 13 2 6 -3 18 -12 25 -15 11 -14 13 1 26 10 7 18 18 18 25
0 6 7 11 15 11 9 0 26 6 38 14 34 21 97 28 97 10 0 -8 5 -14 10 -14 17 0 11
27 -7 35 -17 6 -17 7 -2 18 21 16 30 107 12 107 -7 0 -13 -10 -13 -21 0 -18
-2 -20 -16 -8 -14 12 -14 14 0 25 19 13 21 60 4 67 -10 4 -10 6 0 6 6 1 12 8
12 16 0 9 -6 12 -15 9 -11 -5 -15 1 -15 19 0 20 4 24 25 19 19 -3 25 0 25 14
0 11 14 27 30 36 28 16 30 16 30 0 0 -15 2 -15 10 -2 6 10 6 16 0 18 -6 2 -10
10 -10 18 0 8 -10 14 -21 14 -21 0 -21 1 5 26 14 15 26 33 26 41 0 11 7 13 25
9 18 -5 25 -2 25 9 0 17 16 21 22 5 2 -6 15 -6 32 -2 l29 8 -34 17 c-34 16
-34 17 -7 17 25 0 27 2 21 31 -10 51 34 107 51 63 3 -9 3 -21 -1 -27 -3 -7 4
-3 16 8 22 19 23 19 37 0 8 -10 14 -29 14 -41 0 -28 59 -57 61 -31 2 21 5 32
14 51 6 13 3 21 -8 28 -19 10 -23 43 -7 53 19 12 0 23 -34 21 -28 -1 -35 3
-39 19 -3 18 1 20 25 17 16 -3 28 0 28 7 0 6 5 11 10 11 6 0 10 -9 10 -20 0
-22 15 -27 24 -7 3 8 11 5 24 -10 11 -13 25 -23 31 -23 17 0 31 -34 20 -51 -8
-11 -12 -11 -16 -1 -7 18 -63 16 -63 -3 0 -8 7 -15 15 -15 12 0 14 -8 9 -39
-4 -25 -2 -41 6 -46 9 -5 10 -1 5 15 -6 20 -4 22 19 18 20 -4 26 -1 26 13 0
10 4 21 10 24 5 3 9 16 9 28 -1 40 25 97 43 97 10 0 18 4 18 9 0 5 10 13 23
17 21 7 21 7 2 15 -11 4 -15 8 -8 8 6 1 16 16 23 35 9 30 15 34 45 34 25 0 35
-5 39 -21 6 -22 7 -22 21 -3 8 11 15 14 15 7 0 -7 5 -9 10 -6 6 4 8 15 5 26
-5 15 -1 19 20 19 15 0 24 4 20 10 -3 6 -1 10 6 10 16 0 1 15 -14 15 -7 0 -11
11 -9 24 1 13 -2 29 -8 36 -8 9 -5 14 9 18 14 3 18 11 14 26 -3 12 0 22 6 22
26 3 30 4 37 12 4 4 0 7 -8 7 -21 0 -28 22 -19 56 5 22 16 31 42 37 62 16 88
29 94 47 3 11 16 17 35 18 16 0 38 5 49 11 11 6 27 8 35 5 12 -5 15 -2 10 10
-3 9 -15 16 -26 16 -30 0 -19 34 12 37 14 1 19 0 13 -3 -23 -10 -13 -24 17
-24 20 0 30 5 30 15 0 8 -4 15 -8 15 -5 0 -16 18 -26 40 -10 24 -24 40 -34 40
-15 0 -15 2 -2 10 8 5 10 10 4 10 -6 0 -9 12 -6 29 4 27 30 46 56 42 4 -1 14
4 22 10 11 9 14 8 14 -5 0 -9 -4 -16 -10 -16 -5 0 -10 -9 -10 -20 0 -11 5 -20
10 -20 6 0 10 -9 10 -20 0 -11 -4 -20 -10 -20 -5 0 -10 -18 -10 -40 0 -29 4
-40 15 -40 10 0 17 14 21 40 4 22 10 40 13 40 4 0 14 23 21 50 14 53 28 62 47
31 7 -11 20 -18 30 -16 10 2 26 4 36 4 9 1 16 4 16 9 -4 21 3 24 15 6 14 -18
15 -18 21 -1 5 11 1 25 -9 36 -9 10 -16 23 -16 29 0 17 37 15 43 -2 5 -12 11
-12 31 -3 14 7 27 20 30 29 5 22 26 24 26 3 0 -21 18 -19 32 5 13 21 48 28 48
9 0 -6 12 -9 28 -7 15 2 26 8 24 16 -3 19 25 14 47 -9 13 -14 21 -17 26 -9 4
6 0 19 -9 29 -13 14 -14 24 -7 45 6 14 15 26 21 26 5 0 10 14 10 30 0 17 5 30
11 30 8 0 10 -16 6 -50 -5 -44 -4 -50 12 -50 11 0 21 7 25 15 10 26 26 16 26
-16 0 -22 -5 -32 -20 -36 -20 -5 -29 -43 -10 -43 6 0 10 5 10 10 0 6 9 10 21
10 14 0 19 -5 16 -15 -4 -8 -2 -17 3 -20 6 -4 10 -1 10 4 0 6 9 11 20 11 20 0
28 24 10 35 -5 3 -1 22 11 45 18 33 24 38 39 30 20 -11 50 -4 50 11 0 10 -3
11 -42 13 -16 1 -28 -2 -28 -6 0 -4 -8 -8 -17 -8 -13 0 -18 9 -19 30 -1 37
-10 48 -26 32 -16 -16 -28 -15 -28 3 0 8 -6 15 -12 15 -10 0 -9 3 1 9 7 5 10
14 7 20 -4 6 -2 11 4 11 6 0 9 4 5 9 -3 5 -1 12 3 15 5 3 15 -7 21 -21 8 -18
15 -23 20 -15 6 11 27 14 71 11 8 0 24 2 35 6 24 7 65 -24 65 -49 0 -16 1 -16
16 -2 17 18 40 21 49 6 8 -13 35 -1 35 15 0 8 -9 17 -20 20 -21 7 -25 17 -13
29 4 4 16 -3 26 -16 13 -16 20 -19 24 -10 2 6 10 12 17 12 17 0 66 24 66 32 0
4 -10 9 -22 11 l-23 4 23 8 c12 4 22 11 22 16 0 5 -611 9 -1435 9 l-1435 0 2
-2032z m2788 2012 c0 -5 -4 -10 -10 -10 -5 0 -10 5 -10 10 0 6 5 10 10 10 6 0
10 -4 10 -10z m-160 -26 c0 -8 -5 -12 -10 -9 -6 4 -8 11 -5 16 9 14 15 11 15
-7z m-113 -20 c-3 -3 -12 -4 -19 -1 -8 3 -5 6 6 6 11 1 17 -2 13 -5z m-434
-101 c-7 -2 -19 -2 -25 0 -7 3 -2 5 12 5 14 0 19 -2 13 -5z m395 -15 c-7 -19
-68 -21 -68 -3 0 11 11 15 36 15 24 0 34 -4 32 -12z m-398 -18 c0 -5 -4 -10
-10 -10 -5 0 -10 5 -10 10 0 6 5 10 10 10 6 0 10 -4 10 -10z m-90 -54 c0 -18
-5 -24 -19 -23 -18 1 -18 2 -2 24 20 28 21 28 21 -1z m247 8 c-3 -3 -12 -4
-19 -1 -8 3 -5 6 6 6 11 1 17 -2 13 -5z m-206 -31 c-5 -21 -14 -28 -34 -30
-15 -1 -29 2 -32 8 -4 5 1 9 9 9 9 0 25 9 36 20 26 26 30 25 21 -7z m-71 -53
c-8 -5 -24 -10 -35 -10 -17 0 -17 2 -5 10 8 5 24 10 35 10 17 0 17 -2 5 -10z
m30 -70 c0 -5 -7 -10 -15 -10 -8 0 -15 5 -15 10 0 6 7 10 15 10 8 0 15 -4 15
-10z m-240 -115 c0 -8 -4 -15 -10 -15 -5 0 -10 7 -10 15 0 8 5 15 10 15 6 0
10 -7 10 -15z m-160 -85 c0 -5 -5 -10 -11 -10 -5 0 -7 5 -4 10 3 6 8 10 11 10
2 0 4 -4 4 -10z m104 -31 c-8 -14 -24 -10 -24 6 0 9 6 12 15 9 8 -4 12 -10 9
-15z m-207 -175 c-3 -3 -12 -4 -19 -1 -8 3 -5 6 6 6 11 1 17 -2 13 -5z m-137
-180 c0 -8 -4 -12 -10 -9 -5 3 -10 10 -10 16 0 5 5 9 10 9 6 0 10 -7 10 -16z
m-113 -20 c-3 -3 -12 -4 -19 -1 -8 3 -5 6 6 6 11 1 17 -2 13 -5z m-112 -14 c3
-5 1 -10 -4 -10 -6 0 -11 5 -11 10 0 6 2 10 4 10 3 0 8 -4 11 -10z m95 -46 c0
-7 8 -15 18 -17 9 -3 2 -5 -15 -6 -20 -1 -33 4 -33 12 0 6 -3 23 -7 36 -6 23
-6 23 16 5 11 -10 21 -24 21 -30z m50 26 c0 -5 -7 -10 -16 -10 -8 0 -12 5 -9
10 3 6 10 10 16 10 5 0 9 -4 9 -10z m-163 -22 c-3 -8 -6 -5 -6 6 -1 11 2 17 5
13 3 -3 4 -12 1 -19z m81 -81 c2 -12 -1 -15 -12 -11 -19 7 -22 38 -3 32 6 -3
13 -12 15 -21z m-238 -47 c0 -5 -5 -10 -11 -10 -5 0 -7 5 -4 10 3 6 8 10 11
10 2 0 4 -4 4 -10z m100 -14 c0 -3 -4 -8 -10 -11 -5 -3 -10 -1 -10 4 0 6 5 11
10 11 6 0 10 -2 10 -4z m-180 -16 c0 -5 -2 -10 -4 -10 -3 0 -8 5 -11 10 -3 6
-1 10 4 10 6 0 11 -4 11 -10z m-133 -257 c2 -6 -3 -13 -12 -16 -10 -5 -15 0
-15 14 0 21 21 22 27 2z m-137 -263 c0 -5 -4 -10 -10 -10 -5 0 -10 5 -10 10 0
6 5 10 10 10 6 0 10 -4 10 -10z m50 -15 c11 -13 8 -15 -15 -15 -23 0 -26 2
-15 15 7 8 14 15 15 15 1 0 8 -7 15 -15z m-6 -36 c3 -3 -4 -10 -14 -17 -17
-10 -20 -10 -20 7 0 17 21 23 34 10z m-144 -140 c0 -4 -7 -6 -15 -3 -8 4 -15
1 -15 -6 0 -6 -4 -8 -10 -5 -14 8 11 34 27 28 7 -3 13 -9 13 -14z m-70 -29 c0
-5 -4 -10 -10 -10 -5 0 -10 5 -10 10 0 6 5 10 10 10 6 0 10 -4 10 -10z m120
-60 c0 -5 -2 -10 -4 -10 -3 0 -8 5 -11 10 -3 6 -1 10 4 10 6 0 11 -4 11 -10z
m-160 -76 c0 -8 -5 -12 -10 -9 -6 4 -8 11 -5 16 9 14 15 11 15 -7z m60 -49
c-13 -16 -40 -20 -40 -7 0 14 12 22 33 22 16 0 17 -3 7 -15z m-60 -15 c0 -5
-8 -10 -17 -10 -15 0 -16 2 -3 10 19 12 20 12 20 0z m0 -100 c0 -5 -2 -10 -4
-10 -3 0 -8 5 -11 10 -3 6 -1 10 4 10 6 0 11 -4 11 -10z m-160 -220 c0 -5 -5
-10 -11 -10 -5 0 -7 5 -4 10 3 6 8 10 11 10 2 0 4 -4 4 -10z m0 -40 c0 -5 -4
-10 -10 -10 -5 0 -10 5 -10 10 0 6 5 10 10 10 6 0 10 -4 10 -10z m75 -178 c0
-18 -20 -15 -23 4 -3 10 1 15 10 12 7 -3 13 -10 13 -16z m-75 -102 c0 -5 -7
-10 -16 -10 -8 0 -12 5 -9 10 3 6 10 10 16 10 5 0 9 -4 9 -10z m77 -16 c-3 -3
-12 -4 -19 -1 -8 3 -5 6 6 6 11 1 17 -2 13 -5z m-107 -73 c0 -4 -5 -22 -11
-38 -8 -24 -15 -30 -30 -26 -24 7 -24 22 -1 39 15 12 15 15 2 24 -12 8 -9 10
13 10 15 0 27 -4 27 -9z m-23 -103 c-3 -8 -6 -5 -6 6 -1 11 2 17 5 13 3 -3 4
-12 1 -19z m-7 -127 c0 -5 -7 -11 -14 -14 -10 -4 -13 -1 -9 9 6 15 23 19 23 5z
m-20 -66 c0 -8 -4 -15 -10 -15 -5 0 -10 7 -10 15 0 8 5 15 10 15 6 0 10 -7 10
-15z m45 -5 c9 -14 -6 -110 -16 -104 -5 3 -9 18 -9 34 0 17 -7 33 -17 39 -10
6 -12 11 -5 11 6 0 12 7 12 15 0 17 25 21 35 5z m-125 -10 c0 -5 -5 -10 -11
-10 -5 0 -7 5 -4 10 3 6 8 10 11 10 2 0 4 -4 4 -10z m70 -280 c0 -5 -7 -10
-15 -10 -8 0 -15 5 -15 10 0 6 7 10 15 10 8 0 15 -4 15 -10z m-40 -29 c0 -5 3
-16 6 -25 4 -11 0 -16 -14 -16 -21 0 -32 17 -24 38 5 14 32 17 32 3z m-30 -65
c0 -8 6 -16 13 -19 6 -2 9 -8 5 -12 -8 -9 -38 18 -38 34 0 6 5 11 10 11 6 0
10 -6 10 -14z"/>
<path d="M2975 8610 c45 -6 44 -9 -5 -15 -37 -4 -70 -18 -70 -31 0 -8 -7 -14
-15 -14 -8 0 -15 -7 -15 -15 0 -19 14 -19 33 0 8 8 33 17 56 21 22 4 39 12 38
18 -1 7 17 11 52 11 31 0 56 5 58 11 5 16 -28 27 -41 14 -5 -5 -17 -10 -25
-10 -14 0 -14 1 -1 10 10 7 -5 9 -50 8 l-65 -1 50 -7z"/>
<path d="M5818 8613 c6 -2 18 -2 25 0 6 3 1 5 -13 5 -14 0 -19 -2 -12 -5z"/>
<path d="M5905 8610 c3 -5 10 -10 16 -10 5 0 9 5 9 10 0 6 -7 10 -16 10 -8 0
-12 -4 -9 -10z"/>
<path d="M5978 8609 c15 -5 36 -6 55 0 29 8 27 9 -23 9 -44 1 -50 -1 -32 -9z"/>
<path d="M6150 8601 c0 -11 -7 -21 -15 -23 -13 -2 -12 -9 8 -35 20 -27 26 -31
40 -20 8 6 17 21 19 32 2 15 12 21 43 23 39 3 39 3 21 -17 -18 -20 -18 -20 3
-16 11 2 25 6 30 9 5 3 11 -3 14 -14 3 -11 1 -18 -4 -14 -5 3 -6 -2 -3 -10 7
-18 35 -21 50 -6 8 8 11 1 12 -22 1 -30 0 -32 -13 -14 -17 23 -44 14 -42 -13
1 -20 14 -26 45 -22 6 1 12 -3 12 -9 0 -5 -6 -10 -14 -10 -7 0 -20 -7 -27 -17
-13 -15 -11 -16 24 -10 20 3 37 2 37 -3 0 -4 11 -11 24 -14 18 -4 23 -11 19
-25 -3 -11 0 -28 5 -38 9 -15 13 -11 23 30 7 26 19 47 26 47 16 0 17 -12 2
-27 -14 -14 10 -53 33 -53 10 0 18 -4 18 -10 0 -14 -37 -13 -42 1 -3 8 -10 8
-26 -2 -31 -19 -28 -26 15 -34 32 -6 40 -3 52 14 16 25 53 27 75 5 21 -20 21
-45 1 -38 -16 7 -45 -12 -45 -28 0 -6 7 -5 15 2 12 10 18 10 30 0 10 -9 15 -9
15 -1 0 15 43 14 58 -1 10 -10 15 -10 22 2 5 8 10 12 12 10 2 -3 8 -14 14 -25
6 -11 21 -21 33 -23 26 -4 28 -22 2 -22 -10 0 -24 -7 -31 -15 -11 -13 -8 -20
16 -42 16 -15 33 -26 38 -25 4 2 14 -2 22 -9 7 -6 18 -8 24 -4 5 3 10 0 10 -8
0 -8 7 -20 16 -28 13 -10 17 -10 24 2 7 11 12 11 22 1 9 -9 9 -12 -5 -12 -9 0
-17 -7 -17 -16 0 -10 7 -14 23 -12 15 2 22 -2 22 -15 0 -9 15 -33 33 -52 29
-32 37 -53 33 -79 -1 -4 11 -5 26 -1 58 17 78 12 81 -17 3 -23 8 -28 32 -28
20 0 31 6 35 20 7 22 41 27 48 8 5 -15 -13 -58 -24 -58 -4 0 -10 6 -13 13 -3
6 -4 -1 -1 -16 3 -16 15 -38 25 -50 11 -11 20 -27 20 -34 0 -7 7 -13 15 -13 8
0 15 4 15 10 0 19 29 -2 32 -23 4 -27 30 -33 51 -12 19 19 34 20 18 1 -13 -15
1 -50 32 -81 10 -10 16 -24 13 -31 -3 -8 1 -14 8 -14 13 0 30 -39 21 -49 -3
-2 -5 1 -5 7 0 7 -4 12 -10 12 -15 0 -12 -38 3 -43 9 -3 9 -7 0 -19 -17 -20
-5 -30 19 -17 14 8 17 14 10 21 -14 14 -4 38 15 38 10 0 12 -6 8 -20 -5 -14
-2 -20 9 -20 9 0 16 -6 17 -12 0 -7 4 -4 9 7 7 18 9 17 20 -12 8 -22 18 -33
32 -33 17 0 19 -5 14 -25 -5 -20 -3 -25 13 -25 15 0 21 8 24 38 2 20 3 9 0
-25 l-3 -62 37 -17 c27 -13 38 -15 41 -6 2 7 8 9 14 6 5 -3 0 -13 -11 -21 -23
-15 -30 -68 -8 -60 6 2 11 14 10 26 -3 20 1 22 47 19 53 -3 68 -19 28 -29
l-23 -6 25 -11 c14 -6 18 -11 10 -12 -13 0 -13 -3 1 -13 9 -7 19 -21 21 -32 4
-17 7 -14 21 15 l17 35 -6 -32 c-3 -21 -1 -33 5 -33 6 0 11 -5 11 -11 0 -6 -6
-9 -13 -6 -10 4 -13 -2 -9 -19 2 -14 0 -24 -7 -24 -6 0 -11 5 -11 10 0 16 -27
11 -34 -6 -9 -24 -8 -26 15 -19 14 5 25 2 30 -6 6 -10 9 -11 9 -1 0 6 7 12 16
12 8 0 12 5 9 10 -3 6 -1 10 4 10 6 0 10 -11 9 -25 -2 -17 -8 -25 -22 -25 -25
0 -17 -9 13 -13 13 -2 31 -16 40 -31 14 -24 14 -28 1 -36 -10 -7 -11 -10 -2
-10 6 0 12 -6 12 -14 0 -9 -7 -12 -19 -9 -27 7 -33 -11 -21 -56 11 -41 31 -64
38 -43 2 6 10 8 18 5 7 -3 12 -9 9 -13 -9 -15 15 -62 35 -67 11 -3 20 -14 20
-24 0 -11 5 -19 10 -19 6 0 10 -7 10 -15 0 -9 10 -29 21 -45 12 -16 19 -35 16
-43 -3 -9 1 -18 9 -21 8 -3 14 -13 14 -23 0 -9 12 -29 26 -44 14 -15 30 -46
35 -69 5 -24 18 -54 29 -67 19 -24 19 -24 32 -4 7 12 18 21 25 21 6 0 13 6 16
13 4 10 7 10 18 0 9 -10 10 -13 1 -13 -7 0 -12 -10 -12 -22 0 -17 3 -19 9 -10
6 10 10 8 14 -8 4 -17 10 -20 27 -15 20 6 22 5 15 -27 -8 -36 -29 -58 -57 -58
-10 0 -18 -4 -18 -10 0 -5 5 -10 11 -10 7 0 9 -11 6 -29 -6 -31 7 -51 35 -51
11 0 15 -5 12 -14 -7 -18 38 -48 71 -48 18 0 25 -6 25 -19 0 -11 7 -19 15 -19
8 0 15 5 15 10 0 6 7 10 15 10 20 0 19 -16 -1 -24 -11 -4 -14 -13 -10 -30 3
-14 2 -28 -4 -31 -17 -10 -11 -23 12 -27 19 -3 22 -10 23 -63 1 -33 5 -75 9
-92 7 -29 5 -33 -12 -33 -31 0 -36 -29 -7 -36 20 -5 23 -9 15 -24 -8 -14 -5
-19 13 -24 17 -5 19 -8 8 -15 -9 -6 -10 -10 -2 -16 7 -3 9 -15 6 -26 -4 -11
-2 -19 4 -19 6 0 11 -4 11 -10 0 -15 -30 -12 -31 3 0 6 -5 2 -11 -10 -14 -28
-38 -30 -45 -3 -3 11 -9 20 -13 20 -5 0 -10 10 -13 23 -3 20 -4 20 -12 4 -9
-22 9 -59 48 -98 l28 -28 6 29 c9 48 20 34 16 -22 l-3 -53 20 25 c11 14 20 28
20 33 0 11 40 8 40 -3 0 -5 -9 -10 -20 -10 -13 0 -18 -5 -14 -15 4 -8 12 -15
20 -15 8 0 14 -9 14 -20 0 -11 -7 -20 -15 -20 -9 0 -12 -6 -8 -17 5 -13 2 -15
-15 -11 -15 4 -25 0 -31 -10 -8 -14 -12 -15 -22 -4 -7 6 -24 12 -38 12 -19 0
-22 -3 -13 -12 7 -7 12 -21 12 -33 0 -12 3 -16 8 -9 10 17 54 21 59 7 3 -8 -4
-13 -15 -13 -19 0 -38 -27 -27 -38 3 -3 5 0 5 6 0 7 5 12 10 12 6 0 10 -10 10
-22 0 -17 3 -19 12 -10 7 7 23 12 36 12 20 0 23 -4 19 -20 -4 -15 2 -26 19
-37 35 -23 48 -50 32 -68 -33 -36 -38 -46 -38 -68 0 -14 -3 -39 -6 -56 -5 -25
-12 -31 -33 -32 -23 -2 -24 -2 -3 -6 12 -2 22 -11 22 -19 0 -19 14 -18 31 2
10 13 10 17 0 23 -15 10 -11 43 5 48 19 6 45 -313 27 -330 -3 -4 -17 0 -29 8
l-23 15 3 -138 c2 -75 -1 -145 -5 -154 -6 -10 -5 -19 1 -23 6 -4 8 -15 5 -24
-3 -10 2 -33 12 -51 16 -33 17 -33 26 -12 14 31 25 27 30 -10 2 -18 5 938 5
2125 l2 2157 -1235 0 c-1213 0 -1235 0 -1235 -19z m365 -141 c3 -5 -1 -10 -9
-10 -9 0 -16 5 -16 10 0 6 4 10 9 10 6 0 13 -4 16 -10z m195 -146 c0 -12 -49
-29 -57 -20 -3 3 -3 11 -1 18 7 16 58 17 58 2z m155 -53 l20 -24 -22 12 c-13
6 -23 19 -23 28 0 9 1 14 3 12 1 -2 11 -15 22 -28z m-165 -1 c-20 -13 -50 -13
-50 0 0 6 15 10 33 10 24 0 28 -3 17 -10z m166 -67 c-11 -11 -17 4 -9 23 7 18
8 18 11 1 2 -10 1 -21 -2 -24z m-49 21 c-3 -3 -12 -4 -19 -1 -8 3 -5 6 6 6 11
1 17 -2 13 -5z m88 -24 c-5 -24 -40 -72 -48 -64 -7 7 34 84 44 84 4 0 6 -9 4
-20z m48 -20 c3 -11 1 -18 -4 -14 -5 3 -9 12 -9 20 0 20 7 17 13 -6z m22 -50
c16 0 17 -2 5 -9 -8 -6 -18 -7 -22 -5 -4 3 -8 0 -8 -5 0 -6 12 -11 27 -11 20
0 24 -3 16 -11 -15 -15 -63 14 -63 36 0 8 -7 15 -16 15 -8 0 -12 5 -9 10 4 7
14 5 28 -5 12 -8 31 -15 42 -15z m-185 0 c0 -5 -4 -10 -10 -10 -5 0 -10 5 -10
10 0 6 5 10 10 10 6 0 10 -4 10 -10z m40 0 c0 -5 -4 -10 -10 -10 -5 0 -10 5
-10 10 0 6 5 10 10 10 6 0 10 -4 10 -10z m200 -40 c0 -5 -2 -10 -4 -10 -3 0
-8 5 -11 10 -3 6 -1 10 4 10 6 0 11 -4 11 -10z m-145 -20 c3 -5 1 -10 -4 -10
-6 0 -11 5 -11 10 0 6 2 10 4 10 3 0 8 -4 11 -10z m170 -10 c3 -5 -1 -10 -9
-10 -8 0 -18 5 -21 10 -3 6 1 10 9 10 8 0 18 -4 21 -10z m-5 -46 c0 -18 -8
-18 -26 1 -19 19 -8 41 12 24 8 -6 14 -18 14 -25z m-50 -19 c0 -10 -10 -15
-26 -15 -22 0 -25 2 -14 15 7 8 19 15 26 15 8 0 14 -7 14 -15z m140 -55 c0
-11 -7 -20 -15 -20 -8 0 -15 9 -15 20 0 11 7 20 15 20 8 0 15 -9 15 -20z m-50
-10 c0 -5 -7 -10 -15 -10 -8 0 -15 5 -15 10 0 6 7 10 15 10 8 0 15 -4 15 -10z
m59 -37 c0 -5 -4 -17 -9 -28 -8 -18 -9 -17 -9 8 -1 15 4 27 9 27 6 0 10 -3 9
-7z m118 -35 c-3 -8 -6 -5 -6 6 -1 11 2 17 5 13 3 -3 4 -12 1 -19z m108 -108
c4 -6 -5 -10 -19 -10 -14 0 -26 5 -26 10 0 6 9 10 19 10 11 0 23 -4 26 -10z
m-5 -50 c0 -5 -4 -10 -10 -10 -5 0 -10 5 -10 10 0 6 5 10 10 10 6 0 10 -4 10
-10z m70 -29 c0 -11 -4 -9 -14 4 -8 11 -12 24 -9 28 7 11 23 -12 23 -32z m4
-50 c3 -5 -1 -12 -10 -15 -20 -8 -29 -1 -19 13 8 13 22 14 29 2z m122 -136
c-3 -20 -20 -20 -24 -1 -2 9 3 16 11 16 9 0 14 -7 13 -15z m19 -55 c3 -5 -1
-10 -10 -10 -9 0 -13 5 -10 10 3 6 8 10 10 10 2 0 7 -4 10 -10z m80 -96 c-12
-13 -19 -14 -28 -5 -8 8 -7 11 5 11 9 0 20 10 24 23 7 18 8 19 12 5 2 -10 -4
-25 -13 -34z m98 9 c-8 -3 -11 -15 -7 -31 l6 -27 -14 25 c-14 25 -7 41 17 39
6 0 4 -3 -2 -6z m44 -79 c-3 -3 -12 -4 -19 -1 -8 3 -5 6 6 6 11 1 17 -2 13 -5z
m153 -168 c0 -2 -7 -9 -15 -16 -12 -10 -15 -10 -15 4 0 9 7 16 15 16 8 0 15
-2 15 -4z m10 -66 c0 -5 -4 -10 -10 -10 -5 0 -10 5 -10 10 0 6 5 10 10 10 6 0
10 -4 10 -10z m100 -80 c0 -5 -7 -10 -16 -10 -8 0 -12 5 -9 10 3 6 10 10 16
10 5 0 9 -4 9 -10z m-80 -20 c0 -5 -2 -10 -4 -10 -3 0 -8 5 -11 10 -3 6 -1 10
4 10 6 0 11 -4 11 -10z m117 -42 c-3 -8 -6 -5 -6 6 -1 11 2 17 5 13 3 -3 4
-12 1 -19z m-17 -67 c0 -6 -4 -13 -10 -16 -5 -3 -10 1 -10 9 0 9 5 16 10 16 6
0 10 -4 10 -9z m-96 -46 c-4 -8 -11 -12 -16 -9 -6 4 -5 10 3 15 19 12 19 11
13 -6z m171 -65 c3 -5 1 -10 -4 -10 -6 0 -11 5 -11 10 0 6 2 10 4 10 3 0 8 -4
11 -10z m-55 -50 c10 0 20 6 23 13 2 6 8 9 11 5 4 -3 -2 -16 -14 -28 -11 -11
-18 -25 -15 -29 5 -8 -16 -21 -35 -21 -14 0 -21 33 -9 41 6 4 8 12 5 18 -4 6
-12 9 -17 6 -11 -7 -12 18 -2 29 5 4 14 -2 22 -13 7 -12 22 -21 31 -21z m98
-134 c2 -30 -1 -57 -6 -60 -6 -3 -27 10 -48 29 -21 19 -45 35 -53 35 -9 0 -3
7 13 15 15 8 36 15 45 15 14 0 14 2 1 10 -12 7 -8 10 15 10 29 0 30 -1 33 -54z
m102 24 c0 -5 -4 -10 -10 -10 -5 0 -10 5 -10 10 0 6 5 10 10 10 6 0 10 -4 10
-10z m-100 -130 c0 -11 -4 -20 -10 -20 -5 0 -10 9 -10 20 0 11 5 20 10 20 6 0
10 -9 10 -20z m190 -43 l0 -32 -13 25 c-14 26 -11 54 4 44 5 -3 9 -20 9 -37z
m-46 -72 c8 -19 20 -35 25 -35 6 0 11 -4 11 -10 0 -5 -6 -10 -12 -10 -17 1
-77 50 -60 50 6 0 12 9 12 20 0 29 8 25 24 -15z m56 -10 c0 -8 -4 -15 -10 -15
-5 0 -10 7 -10 15 0 8 5 15 10 15 6 0 10 -7 10 -15z m-100 -80 c0 -16 -6 -25
-15 -25 -16 0 -19 9 -9 34 9 25 24 19 24 -9z m100 -25 c0 -5 -4 -10 -10 -10
-5 0 -10 5 -10 10 0 6 5 10 10 10 6 0 10 -4 10 -10z m-38 -70 c18 -16 19 -20
6 -20 -27 0 -48 11 -48 26 0 20 17 17 42 -6z m153 -140 c3 -5 1 -10 -4 -10 -6
0 -11 5 -11 10 0 6 2 10 4 10 3 0 8 -4 11 -10z m25 -170 c0 -5 -2 -10 -4 -10
-3 0 -8 5 -11 10 -3 6 -1 10 4 10 6 0 11 -4 11 -10z"/>
<path d="M5775 8570 c-3 -5 1 -10 9 -10 29 0 26 -19 -6 -37 -31 -16 -32 -18
-10 -21 16 -2 33 6 53 28 16 17 28 34 25 38 -7 12 -64 13 -71 2z"/>
<path d="M5942 8559 c2 -6 8 -10 13 -10 5 0 11 4 13 10 2 6 -4 11 -13 11 -9 0
-15 -5 -13 -11z"/>
<path d="M5865 8540 c3 -5 11 -10 16 -10 6 0 7 5 4 10 -3 6 -11 10 -16 10 -6
0 -7 -4 -4 -10z"/>
<path d="M5935 8520 c4 -6 11 -8 16 -5 14 9 11 15 -7 15 -8 0 -12 -5 -9 -10z"/>
<path d="M2546 8485 c7 -47 8 -49 29 -42 8 4 15 18 15 33 0 21 -4 25 -19 21
-13 -3 -22 1 -25 12 -3 9 -3 -2 0 -24z"/>
<path d="M5830 8516 c0 -2 7 -6 15 -10 8 -3 15 -1 15 4 0 6 -7 10 -15 10 -8 0
-15 -2 -15 -4z"/>
<path d="M2855 8500 c27 -12 43 -12 25 0 -8 5 -22 9 -30 9 -10 0 -8 -3 5 -9z"/>
<path d="M6130 8495 c0 -8 5 -15 10 -15 6 0 10 -8 10 -17 0 -13 3 -14 11 -6 6
6 18 9 25 6 8 -3 14 -1 14 5 0 5 -11 13 -25 16 -14 4 -25 11 -25 16 0 6 -4 10
-10 10 -5 0 -10 -7 -10 -15z"/>
<path d="M6035 8490 c3 -5 13 -10 21 -10 8 0 14 5 14 10 0 6 -9 10 -21 10 -11
0 -17 -4 -14 -10z"/>
<path d="M6250 8451 c0 -12 6 -21 15 -21 8 0 15 4 15 9 0 5 -7 14 -15 21 -13
10 -15 9 -15 -9z"/>
<path d="M2675 8449 c-11 -17 -2 -18 19 -3 17 12 17 14 4 14 -9 0 -20 -5 -23
-11z"/>
<path d="M6095 8410 c-3 -5 -1 -10 4 -10 6 0 11 5 11 10 0 6 -2 10 -4 10 -3 0
-8 -4 -11 -10z"/>
<path d="M2558 8373 c7 -3 16 -2 19 1 4 3 -2 6 -13 5 -11 0 -14 -3 -6 -6z"/>
<path d="M2370 8350 c-13 -8 -12 -10 3 -10 9 0 17 5 17 10 0 12 -1 12 -20 0z"/>
<path d="M2360 8296 c0 -2 9 -6 20 -9 11 -3 18 -1 14 4 -5 9 -34 13 -34 5z"/>
<path d="M2142 8260 c-10 -17 -10 -20 3 -20 8 0 15 9 15 20 0 11 -1 20 -3 20
-1 0 -8 -9 -15 -20z"/>
<path d="M3951 8239 c-55 -75 -64 -147 -24 -191 20 -22 61 -23 84 -2 14 12 12
2 -9 -55 -21 -54 -31 -69 -42 -64 -8 4 -36 8 -62 11 -27 2 -46 8 -43 12 3 4
-3 18 -13 30 -21 26 -46 19 -66 -18 -7 -15 -23 -45 -35 -67 -12 -21 -21 -54
-21 -71 0 -101 73 -124 109 -35 11 26 14 27 64 21 29 -3 68 -15 87 -26 39 -23
115 -124 101 -134 -16 -10 -25 -162 -12 -202 11 -34 116 -150 126 -140 6 7 6
15 5 -313 0 -148 -5 -448 -10 -665 -5 -217 -12 -558 -16 -757 -4 -216 -10
-360 -16 -357 -5 3 -8 -5 -7 -18 1 -12 1 -57 1 -99 l-2 -76 -89 -17 c-183 -33
-389 -107 -525 -188 -136 -81 -281 -244 -339 -384 -51 -121 -71 -228 -71 -374
1 -122 4 -149 37 -277 39 -153 61 -213 80 -225 12 -8 13 -6 -25 -68 -18 -28
-2 -40 66 -49 70 -10 103 -33 138 -97 109 -196 64 -545 -99 -765 l-45 -62 -54
7 c-30 3 -65 4 -78 0 -31 -7 -54 -49 -39 -72 24 -39 -2 -123 -90 -298 -153
-302 -196 -530 -152 -801 9 -55 15 -112 14 -125 -1 -12 -1 -34 0 -48 1 -21 3
-22 12 -10 8 11 9 6 5 -20 -3 -20 -2 -29 2 -22 6 8 17 -8 35 -49 15 -34 25
-65 22 -67 -3 -3 -5 0 -5 8 0 10 -3 10 -14 1 -10 -9 -16 -9 -21 -1 -4 6 -4 14
-1 17 3 4 6 0 6 -7 0 -10 3 -11 10 -4 6 6 8 18 4 28 -6 15 -7 15 -19 -1 -8
-10 -17 -15 -20 -11 -4 4 0 14 9 23 9 9 16 21 16 27 0 6 -10 -1 -21 -16 l-21
-27 22 -24 c29 -31 43 -90 24 -106 -8 -6 -14 -17 -14 -25 0 -15 -34 -36 -44
-27 -3 3 -6 -8 -6 -25 0 -17 -5 -34 -10 -37 -17 -11 -11 -35 15 -61 16 -16 28
-42 32 -69 4 -30 11 -46 23 -50 10 -3 21 -13 24 -23 11 -30 36 -68 36 -54 0
19 18 14 25 -7 3 -10 19 -24 35 -31 17 -7 30 -19 30 -26 0 -8 8 -14 18 -14 11
0 24 -11 30 -24 6 -13 21 -26 34 -29 13 -3 95 -24 183 -47 88 -23 207 -50 265
-61 321 -61 332 -63 512 -63 135 -1 178 -4 178 -14 0 -6 9 -21 20 -32 16 -16
33 -20 95 -20 83 0 97 10 76 56 -10 23 -10 24 17 17 52 -15 126 -7 177 17 28
13 55 24 62 23 7 0 11 4 10 10 -1 7 9 13 23 14 22 2 23 2 5 -7 -25 -11 50 -4
155 15 41 8 111 17 155 20 79 6 116 12 225 40 30 8 79 19 108 26 33 7 56 18
62 30 6 10 32 28 59 40 27 11 59 32 72 45 12 13 31 24 41 24 10 0 18 4 18 8 0
5 11 14 25 20 14 6 25 18 25 26 0 8 9 17 19 21 13 4 17 12 14 25 -4 16 0 20
23 20 26 1 27 2 12 14 -22 16 -23 36 -3 36 17 0 19 18 5 40 -5 9 -5 19 2 27 7
9 7 17 1 26 -13 16 -15 77 -2 77 5 0 0 14 -13 30 -13 19 -23 47 -24 73 -1 23
1 36 3 30 3 -7 9 -13 14 -13 5 0 4 9 -3 19 -11 19 -14 17 -36 -22 -14 -23 -25
-47 -25 -54 0 -7 -4 -10 -9 -7 -5 3 7 35 26 72 45 86 70 151 98 254 32 116 32
395 1 538 -27 125 -93 292 -162 411 -66 114 -94 154 -85 124 6 -17 4 -17 -11
3 -9 13 -14 30 -11 38 3 8 2 13 -3 10 -23 -15 -29 80 -6 110 20 26 19 48 -4
68 -15 14 -30 16 -77 11 -33 -4 -71 -2 -85 3 -68 27 -146 147 -179 278 -36
141 -22 373 29 473 36 70 79 95 176 103 25 3 31 8 33 31 2 16 -4 39 -12 52
-22 33 -20 59 9 145 79 232 75 467 -13 665 -56 127 -123 227 -216 319 -99 99
-158 142 -281 204 -92 46 -265 112 -294 112 -24 0 -25 11 -46 470 -8 179 -22
465 -30 637 -8 171 -19 454 -25 630 -5 175 -13 390 -16 478 -5 115 -4 171 5
198 7 20 15 36 19 36 37 -6 41 11 11 53 -14 18 -24 55 -29 96 -5 37 -12 94
-16 126 l-7 59 63 -6 c35 -4 71 -7 81 -7 12 0 19 -7 19 -18 0 -26 20 -42 52
-42 38 0 64 29 73 79 11 64 -2 100 -40 118 -42 20 -61 13 -70 -26 -8 -36 -5
-36 -96 -15 -79 18 -80 21 -57 121 l13 53 41 0 c49 0 51 5 46 83 -4 63 -19 80
-53 59 -28 -18 -49 -15 -69 10 l-17 22 -32 -27 c-29 -24 -41 -27 -107 -27 -75
0 -173 25 -221 56 -29 19 -41 18 -46 -3 -3 -10 -5 -1 -6 20 -2 58 -16 77 -56
77 -29 0 -40 -7 -64 -41z m316 -381 c-3 -8 -6 -5 -6 6 -1 11 2 17 5 13 3 -3 4
-12 1 -19z m-64 -143 c4 -39 3 -63 -2 -55 -5 8 -11 56 -14 105 -7 103 7 61 16
-50z m-66 58 c-3 -10 -5 -2 -5 17 0 19 2 27 5 18 2 -10 2 -26 0 -35z m6 -114
c-5 -5 -6 11 -3 34 4 41 5 41 8 8 2 -18 0 -37 -5 -42z m117 -128 c0 -32 -6
-24 -14 19 -4 25 -3 31 4 20 5 -8 10 -26 10 -39z m7 -68 c-3 -10 -5 -4 -5 12
0 17 2 24 5 18 2 -7 2 -21 0 -30z m7 -698 c-4 -297 -6 -1352 -5 -2345 2 -1475
5 -1843 17 -2014 8 -115 13 -210 11 -213 -8 -7 -16 89 -31 342 -19 321 -29
2893 -14 3480 6 215 11 612 12 884 0 280 4 474 9 450 4 -24 5 -287 1 -584z
m203 373 c-3 -8 -6 -5 -6 6 -1 11 2 17 5 13 3 -3 4 -12 1 -19z m-110 -265 c-2
-16 -4 -3 -4 27 0 30 2 43 4 28 2 -16 2 -40 0 -55z m10 -295 c-2 -35 -3 -9 -3
57 0 66 1 94 3 63 2 -32 2 -86 0 -120z m-60 -265 c-2 -32 -3 -8 -3 52 0 61 1
87 3 58 2 -29 2 -78 0 -110z m-60 115 c-3 -8 -6 -5 -6 6 -1 11 2 17 5 13 3 -3
4 -12 1 -19z m130 -191 c-2 -23 -3 -1 -3 48 0 50 1 68 3 42 2 -26 2 -67 0 -90z
m80 31 c-3 -8 -6 -5 -6 6 -1 11 2 17 5 13 3 -3 4 -12 1 -19z m-134 -453 c3
-203 11 -532 16 -730 18 -615 31 -1227 38 -1812 6 -504 8 -561 22 -555 9 3 31
6 49 5 l33 0 -5 311 c-3 171 -8 475 -11 676 -6 432 -20 872 -40 1245 -8 149
-16 371 -19 495 -5 225 -5 225 4 55 43 -838 58 -1263 70 -1975 6 -327 12 -644
15 -705 3 -60 2 -132 -3 -160 l-10 -50 -1 49 -1 49 -59 -7 -58 -7 -6 753 c-4
414 -13 978 -22 1253 -16 543 -31 1493 -23 1485 3 -3 8 -171 11 -375z m144
233 c-2 -29 -3 -8 -3 47 0 55 1 79 3 53 2 -26 2 -71 0 -100z m-80 -55 c-2 -32
-3 -8 -3 52 0 61 1 87 3 58 2 -29 2 -78 0 -110z m90 -85 c-2 -18 -4 -6 -4 27
0 33 2 48 4 33 2 -15 2 -42 0 -60z m-80 -175 c-2 -32 -3 -6 -3 57 0 63 1 89 3
58 2 -32 2 -84 0 -115z m90 15 c-2 -13 -4 -5 -4 17 -1 22 1 32 4 23 2 -10 2
-28 0 -40z m10 -155 c-3 -10 -5 -4 -5 12 0 17 2 24 5 18 2 -7 2 -21 0 -30z
m10 -190 c-2 -21 -4 -6 -4 32 0 39 2 55 4 38 2 -18 2 -50 0 -70z m10 -300 c-2
-32 -3 -6 -3 57 0 63 1 89 3 58 2 -32 2 -84 0 -115z m10 -270 c-2 -16 -4 -5
-4 22 0 28 2 40 4 28 2 -13 2 -35 0 -50z m398 -18 c106 -53 200 -117 234 -158
36 -44 -3 -20 -53 32 -21 23 -45 41 -52 41 -8 0 -14 4 -14 9 0 5 -8 11 -17 15
-30 10 -209 105 -198 105 6 0 51 -20 100 -44z m-1195 21 c0 -2 -7 -7 -16 -10
-8 -3 -12 -2 -9 4 6 10 25 14 25 6z m865 -466 c8 -157 17 -337 20 -400 3 -63
7 -144 10 -180 4 -64 4 -64 -5 -15 -5 28 -14 146 -20 264 -6 117 -15 281 -20
365 -5 83 -9 210 -8 281 1 78 3 98 5 50 1 -44 9 -208 18 -365z m-950 420 c-3
-5 -16 -15 -28 -21 -19 -9 -19 -8 3 10 28 23 34 26 25 11z m-55 -33 c0 -1 -37
-38 -82 -82 l-83 -80 80 83 c74 76 85 87 85 79z m1659 -212 c48 -66 32 -55
-24 18 -26 34 -39 54 -28 44 11 -9 34 -37 52 -62z m-44 -10 c87 -123 194 -391
181 -457 -3 -16 -1 -28 4 -28 25 0 -4 -256 -36 -324 -8 -17 -12 -22 -9 -12 13
47 25 159 25 246 0 163 -80 434 -164 555 -52 75 -58 85 -52 85 2 0 25 -29 51
-65z m145 -154 c17 -35 29 -65 27 -68 -2 -2 -25 38 -50 89 -26 51 -38 82 -27
68 11 -14 33 -54 50 -89z m97 -351 c3 -81 0 -135 -11 -185 -8 -38 -13 -54 -11
-35 16 116 16 259 1 325 -8 39 -18 81 -21 95 -3 14 4 0 16 -30 15 -40 22 -86
26 -170z m-862 -520 c15 -283 49 -684 61 -714 4 -11 13 -15 25 -11 17 6 39
-19 39 -44 0 -20 -18 -11 -24 12 -6 21 -7 21 -20 4 -11 -14 -15 -15 -19 -5 -2
7 -3 5 -2 -4 5 -29 -48 -33 -67 -4 -10 15 -19 3 -9 -12 4 -7 21 -14 38 -15 36
-2 34 -17 -2 -17 -26 0 -55 24 -55 46 0 10 12 14 41 14 l42 0 -7 41 c-19 120
-55 646 -59 874 -5 243 -3 233 18 -165z m-426 -100 c-3 -324 -1 -392 10 -399
8 -5 11 -16 8 -26 -4 -9 -11 -14 -16 -11 -11 7 -18 -59 -11 -99 3 -17 1 -38
-4 -47 -8 -13 -7 -24 2 -38 11 -18 10 -20 -9 -20 -18 0 -20 -2 -8 -16 8 -10 9
-18 2 -22 -15 -10 -67 -115 -65 -129 2 -7 -1 -13 -7 -13 -5 0 -7 -9 -4 -20 4
-14 0 -20 -10 -20 -9 0 -27 -24 -43 -57 -16 -32 -32 -62 -36 -68 -49 -64 -78
-94 -78 -83 0 10 -2 11 -9 0 -4 -7 -14 -12 -22 -10 -9 2 -14 -6 -14 -24 1 -16
-5 -28 -12 -28 -7 0 -13 -6 -13 -12 0 -9 -4 -8 -10 2 -6 9 -10 10 -10 3 0 -7
8 -17 18 -22 10 -6 12 -11 4 -11 -7 0 -10 -5 -6 -12 4 -6 3 -8 -3 -5 -6 4 -16
0 -23 -8 -7 -8 -18 -15 -24 -15 -11 0 -71 -52 -78 -67 -3 -9 -114 -86 -138
-96 -8 -4 -22 -11 -30 -16 -28 -16 -91 -41 -105 -41 -8 0 -29 -9 -49 -20 -19
-12 -37 -17 -40 -11 -3 5 -24 7 -46 4 -26 -4 -40 -2 -40 6 0 6 -8 11 -17 10
-11 0 -13 -3 -5 -6 6 -2 12 -11 12 -19 0 -8 -6 -11 -15 -8 -8 4 -15 12 -15 19
0 12 -14 44 -35 75 -16 25 -16 50 0 56 8 4 15 12 15 20 0 8 12 43 26 79 21 52
38 76 81 113 30 26 71 62 90 80 46 42 129 99 118 81 -4 -8 9 2 29 21 20 19 39
45 42 57 3 12 12 24 20 27 8 3 14 12 14 19 0 8 11 23 25 33 14 10 25 25 25 32
0 7 4 11 9 8 5 -3 11 3 14 13 3 11 17 22 36 26 27 6 31 11 32 43 1 20 6 -28
11 -108 10 -166 6 -220 -23 -308 -21 -62 -51 -92 -94 -92 -20 0 -20 46 0 54 9
3 15 18 15 35 0 58 -89 86 -112 36 -14 -32 3 -93 33 -121 32 -29 133 -27 175
3 17 12 34 20 38 18 3 -3 4 -2 1 1 -2 4 4 19 14 33 47 68 55 115 57 350 3 210
5 226 26 270 14 28 31 47 43 49 19 3 19 2 2 -8 -12 -8 -15 -15 -8 -23 5 -7 9
-16 8 -22 -2 -10 60 -9 95 1 18 5 26 28 20 59 -3 17 -16 23 -67 33 -73 14
-104 6 -147 -36 -22 -20 -28 -22 -28 -10 0 27 12 48 23 41 6 -3 7 -1 3 5 -4 6
-14 8 -24 5 -14 -6 -15 -4 -5 8 17 21 43 137 46 202 1 30 6 59 10 63 4 4 7 18
7 30 0 13 5 26 10 29 6 3 10 30 10 58 1 46 19 95 32 82 2 -2 19 9 37 26 28 25
36 28 49 17 14 -11 15 -9 9 20 -5 27 -4 32 12 32 14 0 18 5 14 20 -4 14 0 20
11 20 9 0 16 6 17 13 0 10 2 10 6 0 6 -15 33 -17 33 -3 0 6 -4 10 -9 10 -5 0
-12 7 -15 15 -7 20 23 32 35 14 7 -11 9 -10 9 5 0 12 5 16 15 12 12 -4 15 6
15 59 0 36 3 65 6 65 3 0 4 -176 3 -390z m478 243 c-3 -10 -5 -2 -5 17 0 19 2
27 5 18 2 -10 2 -26 0 -35z m-577 7 c0 -5 -5 -10 -11 -10 -5 0 -7 5 -4 10 3 6
8 10 11 10 2 0 4 -4 4 -10z m-773 -32 c-3 -8 -6 -5 -6 6 -1 11 2 17 5 13 3 -3
4 -12 1 -19z m10 -70 c-3 -7 -5 -2 -5 12 0 14 2 19 5 13 2 -7 2 -19 0 -25z
m2036 -75 c-7 -2 -19 -2 -25 0 -7 3 -2 5 12 5 14 0 19 -2 13 -5z m-676 -80
c-3 -10 -5 -2 -5 17 0 19 2 27 5 18 2 -10 2 -26 0 -35z m-1090 -435 c-3 -7 -5
-2 -5 12 0 14 2 19 5 13 2 -7 2 -19 0 -25z m-20 -130 c-3 -7 -5 -2 -5 12 0 14
2 19 5 13 2 -7 2 -19 0 -25z m210 -50 c-3 -8 -6 -5 -6 6 -1 11 2 17 5 13 3 -3
4 -12 1 -19z m923 -49 c0 -11 -4 -17 -10 -14 -5 3 -10 1 -10 -6 0 -7 -3 -10
-6 -7 -5 5 16 48 23 48 2 0 3 -9 3 -21z m-403 -21 c-3 -7 -5 -2 -5 12 0 14 2
19 5 13 2 -7 2 -19 0 -25z m310 -50 c-3 -8 -6 -5 -6 6 -1 11 2 17 5 13 3 -3 4
-12 1 -19z m90 -70 c-2 -18 -4 -6 -4 27 0 33 2 48 4 33 2 -15 2 -42 0 -60z
m-310 -50 c-2 -13 -4 -3 -4 22 0 25 2 35 4 23 2 -13 2 -33 0 -45z m-937 28 c0
-2 -8 -10 -17 -17 -16 -13 -17 -12 -4 4 13 16 21 21 21 13z m1238 -205 c-2
-102 -6 -163 -12 -154 -8 15 2 323 11 323 2 0 3 -76 1 -169z m-290 1 c-1 -148
-6 -131 -10 40 -2 58 0 104 5 101 4 -2 6 -66 5 -141z m227 -100 c-12 -142 -17
-82 -8 85 7 130 9 144 11 78 2 -44 0 -117 -3 -163z m-1255 224 c0 -2 -8 -10
-17 -17 -16 -13 -17 -12 -4 4 13 16 21 21 21 13z m-163 -168 c-3 -8 -6 -5 -6
6 -1 11 2 17 5 13 3 -3 4 -12 1 -19z m683 -19 c0 -6 -4 -7 -10 -4 -5 3 -10 11
-10 16 0 6 5 7 10 4 6 -3 10 -11 10 -16z m-721 -81 c-77 -152 -170 -400 -191
-510 -7 -38 -15 -68 -18 -68 -14 0 13 151 41 235 29 88 191 427 197 413 2 -3
-11 -35 -29 -70z m-89 -305 c-11 -17 -11 -17 -6 0 3 10 7 26 7 35 1 15 2 15 6
0 2 -10 -1 -25 -7 -35z m2707 -120 c-3 -10 -5 -2 -5 17 0 19 2 27 5 18 2 -10
2 -26 0 -35z m10 -60 c-3 -10 -5 -4 -5 12 0 17 2 24 5 18 2 -7 2 -21 0 -30z
m20 -216 c-2 -23 -3 -1 -3 48 0 50 1 68 3 42 2 -26 2 -67 0 -90z m-2833 -187
c21 -89 14 -105 -8 -18 -12 51 -14 55 -10 18 3 -24 2 -41 -1 -38 -12 12 -35
193 -33 263 l2 70 6 -75 6 -75 4 80 3 80 7 -116 c4 -64 15 -148 24 -189z m33
-142 c-3 -8 -6 -5 -6 6 -1 11 2 17 5 13 3 -3 4 -12 1 -19z m1563 -32 c0 -17
-8 -45 -18 -61 -11 -17 -22 -47 -26 -68 -4 -20 -12 -37 -19 -37 -9 0 -13 -28
-12 -107 1 -281 -5 -474 -15 -468 -5 3 -10 -1 -10 -10 0 -29 -25 7 -28 39 -4
57 -12 38 -12 -28 0 -48 -3 -67 -12 -64 -22 8 -29 63 -43 346 -13 251 -26 405
-41 467 -5 20 -1 21 115 21 l121 0 0 -30z m-1530 -51 c0 -5 -5 -3 -10 5 -5 8
-10 20 -10 25 0 6 5 3 10 -5 5 -8 10 -19 10 -25z m-79 -138 c-10 -9 -11 -8 -5
6 3 10 9 15 12 12 3 -3 0 -11 -7 -18z m293 -292 c45 -43 67 -69 50 -57 -39 27
-171 167 -185 196 -6 12 4 3 22 -19 18 -22 69 -76 113 -120z m107 -92 c13 -16
12 -17 -3 -4 -10 7 -18 15 -18 17 0 8 8 3 21 -13z m1526 -129 c-3 -3 -12 -4
-19 -1 -8 3 -5 6 6 6 11 1 17 -2 13 -5z m-40 -10 c-3 -3 -12 -4 -19 -1 -8 3
-5 6 6 6 11 1 17 -2 13 -5z m-190 -30 c-3 -3 -12 -4 -19 -1 -8 3 -5 6 6 6 11
1 17 -2 13 -5z"/>
<path d="M3800 2240 c-8 -5 -12 -12 -9 -15 4 -3 12 1 19 10 14 17 11 19 -10 5z"/>
<path d="M3756 2222 c-3 -5 1 -9 9 -9 8 0 15 4 15 9 0 4 -4 8 -9 8 -6 0 -12
-4 -15 -8z"/>
<path d="M3170 2070 c0 -5 5 -10 10 -10 6 0 10 5 10 10 0 6 -4 10 -10 10 -5 0
-10 -4 -10 -10z"/>
<path d="M2942 1430 c0 -19 2 -27 5 -17 2 9 2 25 0 35 -3 9 -5 1 -5 -18z"/>
<path d="M4501 1058 c0 -39 3 -48 9 -33 12 28 12 85 0 85 -5 0 -10 -24 -9 -52z"/>
<path d="M6665 8191 c-3 -5 -1 -12 5 -16 12 -7 30 2 30 16 0 12 -27 12 -35 0z"/>
<path d="M1790 7980 c-13 -8 -12 -10 3 -10 9 0 17 5 17 10 0 12 -1 12 -20 0z"/>
<path d="M1615 7910 c-3 -5 -3 -15 1 -22 5 -8 0 -9 -14 -6 -14 4 -22 2 -22 -7
0 -8 9 -11 24 -8 13 3 27 0 30 -6 4 -6 0 -11 -8 -11 -9 0 -16 -4 -16 -10 0
-16 50 -12 56 5 3 8 0 28 -7 45 -14 30 -32 39 -44 20z"/>
<path d="M1670 7899 c0 -5 5 -7 10 -4 6 3 10 8 10 11 0 2 -4 4 -10 4 -5 0 -10
-5 -10 -11z"/>
<path d="M1518 7883 c7 -3 16 -2 19 1 4 3 -2 6 -13 5 -11 0 -14 -3 -6 -6z"/>
<path d="M7060 7831 c0 -18 12 -41 22 -41 6 0 8 7 4 15 -3 8 -1 15 4 15 6 0
10 5 10 10 0 6 -9 10 -20 10 -11 0 -20 -4 -20 -9z"/>
<path d="M6986 7822 c-2 -4 -1 -14 5 -22 7 -12 9 -10 9 8 0 23 -5 28 -14 14z"/>
<path d="M1590 7805 c0 -8 2 -15 4 -15 2 0 6 7 10 15 3 8 1 15 -4 15 -6 0 -10
-7 -10 -15z"/>
<path d="M1655 7800 c3 -5 8 -10 11 -10 2 0 4 5 4 10 0 6 -5 10 -11 10 -5 0
-7 -4 -4 -10z"/>
<path d="M1523 7773 c-15 -5 -17 -23 -4 -23 5 0 11 7 15 15 3 8 4 15 3 14 -1
0 -8 -3 -14 -6z"/>
<path d="M7380 7500 c0 -5 5 -10 11 -10 5 0 7 5 4 10 -3 6 -8 10 -11 10 -2 0
-4 -4 -4 -10z"/>
<path d="M7338 7473 c-16 -2 -28 -10 -28 -18 0 -7 -3 -22 -6 -32 -5 -16 -5
-17 6 -1 6 10 26 20 46 24 19 3 33 11 31 17 -4 13 -14 15 -49 10z"/>
<path d="M7350 7420 c0 -5 5 -10 11 -10 5 0 7 5 4 10 -3 6 -8 10 -11 10 -2 0
-4 -4 -4 -10z"/>
<path d="M7498 7333 c7 -3 16 -2 19 1 4 3 -2 6 -13 5 -11 0 -14 -3 -6 -6z"/>
<path d="M980 7325 c0 -3 7 -14 16 -23 15 -14 16 -14 13 3 -4 17 -29 35 -29
20z"/>
<path d="M1110 7260 c0 -5 5 -10 11 -10 5 0 7 5 4 10 -3 6 -8 10 -11 10 -2 0
-4 -4 -4 -10z"/>
<path d="M7591 7204 c0 -11 3 -14 6 -6 3 7 2 16 -1 19 -3 4 -6 -2 -5 -13z"/>
<path d="M862 7160 c0 -19 2 -27 5 -17 2 9 2 25 0 35 -3 9 -5 1 -5 -18z"/>
<path d="M7612 7178 c3 -7 13 -15 23 -17 17 -3 17 -2 3 13 -20 19 -31 21 -26
4z"/>
<path d="M7717 7153 c10 -9 24 -23 31 -32 11 -13 12 -13 12 1 0 21 -27 48 -46
48 -12 0 -12 -3 3 -17z"/>
<path d="M826 7125 c4 -8 11 -15 16 -15 6 0 5 6 -2 15 -7 8 -14 15 -16 15 -2
0 -1 -7 2 -15z"/>
<path d="M7760 7093 c-13 -15 -12 -16 4 -10 10 4 22 7 27 7 6 0 7 5 4 10 -9
14 -18 12 -35 -7z"/>
<path d="M805 7060 c-3 -5 -1 -10 4 -10 6 0 11 5 11 10 0 6 -2 10 -4 10 -3 0
-8 -4 -11 -10z"/>
<path d="M840 7055 c6 -8 8 -20 4 -27 -5 -10 -4 -10 6 -1 14 13 7 43 -11 43
-8 0 -8 -4 1 -15z"/>
<path d="M790 7030 c0 -5 7 -10 16 -10 8 0 12 5 9 10 -3 6 -10 10 -16 10 -5 0
-9 -4 -9 -10z"/>
<path d="M732 6998 c6 -18 28 -21 28 -4 0 9 -7 16 -16 16 -9 0 -14 -5 -12 -12z"/>
<path d="M750 6959 c0 -5 5 -7 10 -4 6 3 10 8 10 11 0 2 -4 4 -10 4 -5 0 -10
-5 -10 -11z"/>
<path d="M7846 6945 c4 -8 10 -12 15 -9 11 6 2 24 -11 24 -5 0 -7 -7 -4 -15z"/>
<path d="M850 6941 c0 -11 26 -22 34 -14 3 3 3 10 0 14 -7 12 -34 11 -34 0z"/>
<path d="M795 6920 c4 -6 11 -8 16 -5 14 9 11 15 -7 15 -8 0 -12 -5 -9 -10z"/>
<path d="M775 6800 c3 -5 8 -10 11 -10 2 0 4 5 4 10 0 6 -5 10 -11 10 -5 0 -7
-4 -4 -10z"/>
<path d="M805 6781 c-3 -5 -1 -12 5 -16 12 -7 30 2 30 16 0 12 -27 12 -35 0z"/>
<path d="M592 6745 c-14 -30 -4 -40 20 -18 22 19 23 29 4 36 -8 3 -18 -4 -24
-18z"/>
<path d="M576 6371 c-14 -5 -16 -10 -8 -15 7 -4 19 0 28 8 17 17 11 19 -20 7z"/>
<path d="M8221 6344 c0 -11 3 -14 6 -6 3 7 2 16 -1 19 -3 4 -6 -2 -5 -13z"/>
<path d="M8245 6280 c3 -5 8 -10 11 -10 2 0 4 5 4 10 0 6 -5 10 -11 10 -5 0
-7 -4 -4 -10z"/>
<path d="M410 6220 c0 -5 -10 -10 -22 -11 -22 0 -22 -1 -3 -9 28 -12 47 -12
40 0 -3 6 -1 10 4 10 6 0 11 5 11 10 0 6 -7 10 -15 10 -8 0 -15 -4 -15 -10z"/>
<path d="M328 6103 c-29 -7 -22 -31 7 -25 24 4 33 17 18 25 -5 2 -16 2 -25 0z"/>
<path d="M8383 5850 c0 -25 2 -35 4 -22 2 12 2 32 0 45 -2 12 -4 2 -4 -23z"/>
<path d="M8404 5834 c3 -9 6 -22 6 -30 0 -9 5 -12 10 -9 17 10 12 55 -6 55
-11 0 -14 -5 -10 -16z"/>
<path d="M257 5743 c-4 -3 -7 -15 -7 -26 0 -20 0 -20 19 -1 10 10 17 22 14 27
-5 9 -17 9 -26 0z"/>
<path d="M8370 5469 c0 -16 2 -29 4 -29 18 0 36 15 36 30 0 10 6 20 13 23 6 2
-3 4 -20 5 -30 1 -33 -2 -33 -29z"/>
<path d="M232 5450 c0 -14 2 -19 5 -12 2 6 2 18 0 25 -3 6 -5 1 -5 -13z"/>
<path d="M8490 5440 c0 -5 7 -10 15 -10 8 0 15 5 15 10 0 6 -7 10 -15 10 -8 0
-15 -4 -15 -10z"/>
<path d="M8460 5410 c-9 -6 -10 -10 -3 -10 6 0 15 5 18 10 8 12 4 12 -15 0z"/>
<path d="M8515 5155 c2 -35 11 -40 25 -15 10 18 9 24 -1 31 -21 13 -25 11 -24
-16z"/>
<path d="M8472 5150 c0 -14 2 -19 5 -12 2 6 2 18 0 25 -3 6 -5 1 -5 -13z"/>
<path d="M8478 5093 c7 -3 16 -2 19 1 4 3 -2 6 -13 5 -11 0 -14 -3 -6 -6z"/>
<path d="M170 4970 c0 -19 3 -21 12 -12 9 9 9 15 0 24 -9 9 -12 7 -12 -12z"/>
<path d="M222 4955 c0 -16 2 -22 5 -12 2 9 2 23 0 30 -3 6 -5 -1 -5 -18z"/>
<path d="M120 4729 c0 -5 5 -7 10 -4 6 3 10 8 10 11 0 2 -4 4 -10 4 -5 0 -10
-5 -10 -11z"/>
<path d="M48 4538 c-8 -5 -1 -8 19 -8 26 0 34 -5 39 -25 8 -32 23 -24 17 9 -4
17 -13 25 -34 28 -16 3 -34 1 -41 -4z"/>
<path d="M1 4524 c0 -11 3 -14 6 -6 3 7 2 16 -1 19 -3 4 -6 -2 -5 -13z"/>
<path d="M8493 4474 c-3 -10 -11 -22 -17 -26 -8 -5 -7 -8 1 -8 14 0 38 39 29
47 -3 3 -9 -3 -13 -13z"/>
<path d="M2 4460 c0 -14 2 -19 5 -12 2 6 2 18 0 25 -3 6 -5 1 -5 -13z"/>
<path d="M103 4423 c1 -29 -3 -48 -10 -50 -23 -8 -15 -77 11 -102 22 -20 24
-21 30 -4 4 10 2 19 -4 21 -7 3 -8 8 -1 16 17 20 21 114 5 127 -8 6 -14 18
-14 25 0 8 -4 14 -9 14 -5 0 -9 -21 -8 -47z"/>
<path d="M0 2213 l0 -2213 1063 0 c813 0 1066 3 1075 12 9 9 12 9 12 0 0 -7 6
-12 12 -12 7 0 3 9 -8 21 -19 19 -38 26 -73 28 -7 1 -11 7 -7 16 3 9 0 15 -9
15 -8 0 -35 11 -61 25 -36 19 -50 22 -60 14 -10 -9 -14 -9 -14 0 0 6 -9 11
-19 11 -14 0 -21 8 -23 28 -2 19 -8 26 -20 24 -13 -2 -18 4 -18 21 0 16 -13
33 -45 55 -53 37 -55 38 -56 15 -1 -10 -6 -3 -11 15 -6 17 -15 32 -19 32 -5 0
-9 7 -9 15 0 9 -9 15 -23 15 -22 0 -57 27 -57 44 0 4 13 5 30 1 25 -5 29 -4
24 9 -4 11 -19 16 -45 16 -30 0 -39 4 -40 18 0 10 -3 12 -6 5 -10 -26 -23 -12
-24 25 -1 20 -3 29 -6 19 -2 -9 -9 -15 -14 -11 -5 3 -12 -2 -15 -10 -8 -20
-24 -21 -24 -1 0 8 -10 20 -22 26 -32 17 -97 70 -96 78 3 14 -26 61 -41 66
-18 5 -69 52 -111 101 -14 16 -38 35 -53 42 -15 6 -26 16 -22 21 3 5 1 12 -5
16 -5 3 -10 13 -10 21 0 16 -38 75 -57 86 -6 5 -9 17 -6 29 5 18 3 20 -15 15
-16 -5 -29 0 -47 18 -14 14 -31 26 -37 26 -5 0 -8 7 -4 15 6 18 -29 39 -51 31
-19 -8 -53 20 -54 43 0 10 -2 12 -6 4 -8 -22 -32 -15 -26 7 5 17 0 20 -26 20
-21 0 -31 5 -31 15 0 8 -8 15 -17 16 -16 0 -16 1 1 8 18 7 18 8 3 14 -24 9
-23 67 1 68 9 1 4 4 -13 8 -23 5 -29 12 -28 29 2 17 -2 22 -22 22 -26 0 -34
15 -13 23 10 3 10 7 2 18 -14 18 -24 57 -15 61 3 2 14 18 24 36 24 47 22 87
-5 106 -18 13 -19 16 -5 16 9 0 17 7 17 16 0 8 -4 12 -10 9 -17 -10 -80 6 -80
21 0 10 15 14 55 14 59 0 71 13 30 32 -13 6 -27 19 -30 29 -10 29 -35 32 -35
4 0 -15 6 -25 14 -25 8 0 18 -4 21 -10 4 -6 -10 -10 -34 -10 l-41 0 0 40 c0
28 4 40 14 40 17 0 29 27 16 35 -6 4 -10 20 -10 36 0 23 -4 29 -17 27 -12 -2
-17 2 -14 12 2 8 5 26 7 39 1 13 7 28 13 34 19 19 12 29 -14 23 -21 -5 -25 -2
-30 21 -14 66 -31 110 -52 131 -13 13 -23 27 -23 31 0 5 -9 20 -20 34 -11 14
-19 31 -17 39 2 7 2 10 0 6 -13 -22 -23 -2 -23 42 0 28 -4 50 -9 50 -6 0 -8
22 -6 50 3 27 0 52 -5 55 -18 11 -11 53 10 60 24 8 25 18 4 50 -15 23 -15 25
0 25 9 0 16 5 16 10 0 6 -5 10 -10 10 -6 0 -22 11 -35 24 -27 27 -33 24 -30
-14 3 -32 15 -63 29 -72 8 -5 7 -11 -2 -20 -8 -8 -12 -9 -12 -1 0 7 -9 14 -19
18 -11 3 -24 19 -30 35 -13 38 -34 40 -25 3 l6 -28 -14 25 c-14 24 -13 26 14
38 35 15 36 30 3 42 -21 8 -25 16 -25 47 0 46 15 75 29 54 6 -10 10 -10 16 -1
4 7 -1 13 -13 17 -11 3 -23 16 -26 29 -4 13 -14 24 -22 24 -10 0 -14 6 -10 15
8 21 -3 45 -20 45 -8 0 -14 5 -14 10 0 6 -10 10 -22 10 -20 0 -20 1 -4 19 15
16 15 22 5 39 -11 17 -11 25 1 46 17 32 5 47 -15 20 -10 -12 -13 -31 -10 -51
3 -18 1 -34 -5 -38 -6 -4 -9 -13 -6 -21 3 -8 0 -14 -7 -14 -15 0 -21 116 -7
125 15 9 12 25 -5 25 -8 0 -15 9 -15 20 0 14 7 20 23 20 21 1 21 1 2 12 -11 6
-21 12 -23 13 -1 1 5 16 14 34 14 28 14 37 3 58 -11 20 -11 28 0 45 7 11 8 17
2 13 -6 -3 -14 1 -18 10 -3 10 0 21 8 25 7 5 10 13 5 17 -5 4 -11 2 -13 -4 -3
-7 -11 -13 -19 -13 -8 0 -14 -4 -14 -10 0 -5 -7 -10 -16 -10 -10 0 -14 7 -12
23 2 16 9 21 25 19 25 -3 39 14 25 31 -15 19 -7 62 11 65 19 4 24 47 7 57 -5
3 -10 17 -10 31 0 14 -7 27 -15 30 -18 7 -20 31 -3 36 9 3 8 10 -5 23 -10 9
-16 24 -12 33 3 8 0 21 -6 28 -7 9 -8 19 -2 27 5 6 9 48 8 91 -1 68 -4 81 -23
97 -27 22 -28 39 -2 39 13 0 18 5 14 15 -4 8 -13 15 -21 15 -13 0 -13 3 -3 15
7 8 18 15 26 15 7 0 15 9 19 19 3 11 13 22 22 25 14 6 14 8 0 24 -9 10 -18 40
-20 67 -5 54 -27 79 -49 57 -11 -11 -9 -17 10 -32 18 -15 21 -23 14 -36 -8
-15 -13 -12 -29 22 -16 33 -17 42 -6 52 20 19 16 40 -10 48 -12 5 -25 7 -29 6
-5 -1 -8 2 -8 7 0 5 8 11 19 14 15 4 20 18 26 92 4 56 3 91 -3 97 -6 6 -8 16
-6 23 3 8 -6 14 -25 17 l-31 4 0 -2213z m30 2007 c0 -5 -4 -10 -10 -10 -5 0
-10 5 -10 10 0 6 5 10 10 10 6 0 10 -4 10 -10z m65 -560 c3 -5 -2 -10 -12 -10
-11 0 -24 -5 -31 -12 -7 -7 -12 -8 -12 -2 0 26 42 44 55 24z m-61 -102 c-9
-14 -23 2 -17 18 4 12 8 13 14 3 4 -7 5 -17 3 -21z m104 -146 c2 -7 -3 -12
-12 -12 -9 0 -16 7 -16 16 0 17 22 14 28 -4z m-33 -72 c3 -5 1 -10 -4 -10 -6
0 -11 5 -11 10 0 6 2 10 4 10 3 0 8 -4 11 -10z m45 -139 c0 -12 -9 -20 -25
-23 -31 -6 -32 5 -2 25 28 20 27 20 27 -2z m-13 -115 c-8 -8 -17 -12 -21 -9
-3 3 2 12 12 19 22 16 29 9 9 -10z m-67 -66 c0 -5 -5 -10 -11 -10 -5 0 -7 5
-4 10 3 6 8 10 11 10 2 0 4 -4 4 -10z m80 -180 c0 -5 -4 -10 -10 -10 -5 0 -10
5 -10 10 0 6 5 10 10 10 6 0 10 -4 10 -10z m60 -65 c0 -28 -17 -34 -27 -9 -3
9 0 20 8 25 19 12 19 12 19 -16z m70 -46 c0 -20 -15 -26 -25 -9 -9 15 3 43 15
35 5 -3 10 -15 10 -26z m30 -149 c0 -5 -2 -10 -4 -10 -3 0 -8 5 -11 10 -3 6
-1 10 4 10 6 0 11 -4 11 -10z m55 -120 c4 -6 -5 -10 -20 -10 -15 0 -24 4 -20
10 3 6 12 10 20 10 8 0 17 -4 20 -10z m34 -130 c0 -8 -6 -2 -14 14 -8 15 -12
33 -8 39 7 11 20 -20 22 -53z m-9 -70 c0 -13 -5 -18 -15 -14 -16 7 -19 17 -8
27 12 13 23 7 23 -13z m-23 -56 c-3 -3 -12 -4 -19 -1 -8 3 -5 6 6 6 11 1 17
-2 13 -5z m245 -406 c-9 -9 -15 -9 -24 0 -9 9 -7 12 12 12 19 0 21 -3 12 -12z
m-62 -60 c0 -16 -3 -19 -11 -11 -6 6 -8 16 -5 22 11 17 16 13 16 -11z m58
-151 c2 -10 -3 -17 -12 -17 -10 0 -16 9 -16 21 0 24 23 21 28 -4z m322 -562
c11 -13 7 -15 -26 -15 -35 0 -37 1 -18 15 24 18 29 18 44 0z m177 -167 c-3 -8
-6 -5 -6 6 -1 11 2 17 5 13 3 -3 4 -12 1 -19z m-34 -25 c-7 -18 -23 -16 -23 2
0 8 -4 15 -10 15 -5 0 -10 4 -10 9 0 5 11 4 24 -2 13 -6 21 -17 19 -24z m37
-33 c0 -13 -28 -25 -38 -16 -3 4 0 11 8 16 20 13 30 12 30 0z m220 -200 c0 -5
-4 -10 -10 -10 -5 0 -10 5 -10 10 0 6 5 10 10 10 6 0 10 -4 10 -10z m349 -311
c-16 -10 -23 -4 -14 10 3 6 11 8 17 5 6 -4 5 -9 -3 -15z m151 -149 c0 -5 -5
-10 -11 -10 -5 0 -7 5 -4 10 3 6 8 10 11 10 2 0 4 -4 4 -10z m-70 -4 c0 -3 -4
-8 -10 -11 -5 -3 -10 -1 -10 4 0 6 5 11 10 11 6 0 10 -2 10 -4z"/>
<path d="M165 4280 c3 -5 10 -10 16 -10 5 0 9 5 9 10 0 6 -7 10 -16 10 -8 0
-12 -4 -9 -10z"/>
<path d="M8500 4240 c-1 -3 -4 -24 -6 -47 -4 -38 -3 -43 15 -43 11 0 23 -4 26
-10 3 -5 2 -10 -3 -10 -15 0 -23 -73 -9 -83 7 -5 3 -6 -10 -2 -29 8 -30 -10
-3 -27 25 -16 26 -28 1 -28 -20 0 -35 -25 -25 -41 3 -5 16 -6 29 -3 22 6 24 4
19 -28 -3 -18 1 -51 9 -74 17 -47 7 -131 -18 -150 -19 -14 -30 -80 -15 -89 8
-5 5 -11 -7 -21 -11 -8 -13 -13 -5 -14 7 0 12 -14 12 -36 0 -27 5 -37 20 -41
14 -4 20 -14 20 -35 0 -18 -4 -27 -10 -23 -6 4 -8 15 -5 26 8 24 -26 27 -45 4
-17 -21 -24 -12 -10 14 7 14 7 21 1 21 -11 0 -10 67 1 85 3 6 -1 16 -9 24 -12
11 -15 10 -20 -7 -3 -13 -11 -18 -19 -15 -10 3 -14 -3 -14 -20 0 -17 7 -26 21
-30 21 -6 22 -10 16 -77 -3 -39 -2 -82 3 -96 6 -16 6 -33 -2 -49 -8 -17 -8
-28 0 -37 7 -9 7 -28 2 -58 -12 -60 -12 -70 0 -70 6 0 10 9 10 20 0 11 5 20
10 20 6 0 10 12 10 26 0 27 25 60 34 46 3 -5 -1 -18 -9 -28 -19 -25 -19 -44 0
-44 24 0 17 -20 -7 -21 l-23 0 23 -11 c27 -14 28 -25 2 -33 -20 -6 -28 -35
-10 -35 7 0 7 -6 1 -19 -6 -10 -13 -45 -15 -76 -3 -32 -8 -61 -13 -64 -13 -10
-33 -74 -25 -80 4 -4 8 -14 10 -23 2 -12 -4 -18 -18 -18 -17 0 -19 -4 -14 -27
4 -16 11 -29 15 -31 10 -4 -11 -62 -23 -62 -5 0 -7 -10 -4 -22 3 -13 3 -17 0
-10 -8 16 -39 15 -53 -2 -9 -11 -10 -20 -1 -36 12 -23 6 -40 -15 -40 -7 0 -16
-8 -19 -17 -6 -15 -8 -15 -16 -3 -8 12 -10 10 -10 -7 0 -25 -34 -33 -43 -10
-8 18 -27 -12 -27 -43 1 -25 1 -25 16 -5 11 14 18 16 21 8 8 -22 43 -15 43 8
0 11 4 18 9 14 5 -3 10 -37 10 -77 0 -45 5 -74 12 -79 9 -5 6 -17 -12 -43 -13
-20 -28 -35 -34 -35 -5 1 -29 1 -52 0 -36 -1 -43 -4 -43 -21 0 -11 7 -20 15
-20 8 0 15 7 15 15 0 8 5 15 10 15 19 0 10 -30 -14 -45 -22 -14 -23 -20 -14
-48 5 -18 12 -40 15 -50 4 -13 1 -16 -10 -11 -12 4 -18 -4 -26 -33 -6 -21 -11
-44 -11 -50 0 -7 -7 -13 -15 -13 -8 0 -15 -4 -15 -9 0 -5 -14 -12 -31 -16 -34
-8 -47 -28 -30 -49 9 -10 8 -16 -4 -26 -12 -10 -13 -16 -4 -26 9 -11 8 -14 -4
-14 -9 0 -19 4 -22 10 -10 15 -25 12 -25 -6 0 -9 -9 -18 -20 -21 -14 -4 -20
-14 -20 -32 0 -15 -5 -32 -12 -39 -9 -9 -7 -12 9 -12 32 0 36 -15 7 -30 -13
-8 -27 -25 -31 -39 -3 -14 -12 -33 -19 -42 -8 -9 -15 -37 -16 -62 -2 -39 -6
-47 -25 -52 -13 -3 -23 -12 -23 -20 0 -8 -5 -15 -11 -15 -20 0 -39 -29 -39
-59 0 -23 -4 -30 -17 -29 -10 1 -29 0 -43 -1 -20 -1 -22 -3 -10 -11 12 -8 13
-13 3 -30 -19 -29 -16 -39 11 -37 38 3 35 -15 -4 -28 -24 -8 -34 -18 -32 -29
2 -11 -4 -16 -20 -16 -40 0 -50 -14 -50 -71 -1 -95 2 -109 26 -110 19 0 19 -1
3 -8 -17 -6 -16 -8 7 -21 27 -14 35 -30 15 -30 -7 0 -18 8 -26 18 -11 13 -16
14 -20 4 -4 -10 -8 -9 -18 5 -13 17 -14 17 -21 -2 -4 -11 -14 -30 -22 -43
l-15 -22 -13 26 c-18 33 -18 36 2 32 10 -2 19 3 21 10 3 6 0 12 -6 12 -6 0
-11 14 -11 31 0 26 -3 30 -22 27 -21 -3 -23 -8 -21 -61 2 -42 -1 -57 -11 -57
-13 0 -26 20 -26 40 0 5 8 11 18 13 11 3 8 5 -9 6 -19 1 -28 -5 -32 -19 -3
-12 0 -20 6 -20 7 0 18 -14 26 -30 10 -24 10 -34 1 -45 -7 -8 -12 -30 -13 -50
-1 -26 -5 -34 -16 -32 -11 1 -15 -5 -14 -20 2 -18 -2 -23 -22 -23 -13 0 -27
-5 -31 -11 -5 -9 1 -10 20 -5 27 7 28 6 21 -26 -4 -18 -10 -36 -14 -40 -3 -3
-36 -9 -73 -13 -50 -5 -68 -4 -68 5 0 7 -8 9 -20 5 -14 -5 -20 -2 -20 9 0 11
10 16 28 17 15 0 21 3 14 6 -40 16 -101 -44 -81 -80 6 -9 6 -17 2 -17 -4 0 -1
-5 7 -10 11 -7 7 -10 -17 -10 -23 0 -33 5 -33 15 0 13 -3 13 -20 3 -11 -7 -20
-19 -20 -26 0 -18 30 -27 40 -12 7 11 12 10 25 -3 18 -19 45 -23 45 -7 0 6 20
10 45 10 47 0 62 15 23 23 l-23 4 23 2 c16 1 22 7 22 26 0 14 5 25 10 25 11 0
8 -54 -4 -83 -5 -10 -19 -17 -35 -17 -33 0 -67 -19 -36 -20 19 -1 19 -1 2 -15
-11 -7 -25 -11 -33 -8 -8 3 -18 -5 -24 -21 -5 -14 -16 -26 -25 -26 -8 0 -15
-4 -15 -10 0 -5 -6 -10 -14 -10 -16 0 -29 -27 -20 -41 3 -5 0 -9 -6 -9 -6 0
-9 -4 -5 -9 3 -6 -4 -26 -15 -46 -11 -20 -18 -40 -16 -44 3 -4 1 -13 -4 -20
-9 -16 -30 -6 -30 14 0 31 -83 29 -94 -3 -3 -10 -9 -23 -12 -31 -5 -10 -1 -11
15 -6 15 4 21 2 21 -9 0 -25 -16 -27 -41 -5 l-24 21 -3 -23 c-2 -13 1 -25 6
-27 5 -1 7 -12 5 -23 -5 -17 -11 -20 -39 -14 -52 9 -134 -5 -134 -23 0 -12 -3
-13 -11 -5 -12 12 -39 7 -39 -8 0 -5 7 -9 17 -9 28 0 6 -12 -37 -20 -22 -4
-40 -4 -40 0 0 13 -52 31 -71 25 -14 -5 -18 -12 -13 -30 3 -13 0 -33 -6 -45
-11 -20 -18 -22 -65 -17 -47 5 -52 3 -48 -13 6 -22 -33 -38 -50 -21 -15 15
-20 14 -47 -9 -18 -15 -19 -20 -7 -20 9 0 18 -3 20 -8 3 -4 -11 -7 -31 -7 -31
0 -38 -4 -40 -22 l-3 -22 1155 -1 1156 0 0 2105 0 2105 -37 1 c-21 1 -42 1
-47 0 -4 -1 -14 6 -22 16 -7 10 -14 16 -14 13z m97 -71 c-10 -16 -9 -21 3 -29
26 -17 -7 -11 -44 8 -36 17 -48 42 -21 42 8 0 15 -4 15 -10 0 -5 9 -10 20 -10
11 0 20 7 20 16 0 8 4 12 10 9 6 -4 5 -13 -3 -26z m-27 -555 c0 -31 -18 -20
-22 12 -4 32 -3 34 9 18 7 -10 13 -23 13 -30z m-61 -226 c-9 -16 -9 -23 0 -26
14 -5 15 -32 1 -32 -5 0 -12 12 -16 28 -3 15 -7 33 -10 40 -2 7 5 12 17 12 17
0 18 -3 8 -22z m-11 -101 c2 -10 -3 -17 -12 -17 -10 0 -16 9 -16 21 0 24 23
21 28 -4z m32 -262 c0 -8 -7 -15 -15 -15 -16 0 -20 12 -8 23 11 12 23 8 23 -8z
m-20 -104 c0 -6 -4 -13 -10 -16 -5 -3 -10 1 -10 9 0 9 5 16 10 16 6 0 10 -4
10 -9z m10 -105 c0 -3 -4 -8 -10 -11 -5 -3 -10 -1 -10 4 0 6 5 11 10 11 6 0
10 -2 10 -4z m-40 -37 c0 -5 -4 -9 -10 -9 -5 0 -10 7 -10 16 0 8 5 12 10 9 6
-3 10 -10 10 -16z m50 -19 c0 -5 -4 -10 -10 -10 -5 0 -10 5 -10 10 0 6 5 10
10 10 6 0 10 -4 10 -10z m-130 -190 c0 -5 -5 -10 -11 -10 -5 0 -7 5 -4 10 3 6
8 10 11 10 2 0 4 -4 4 -10z m-7 -47 c-7 -2 -19 -2 -25 0 -7 3 -2 5 12 5 14 0
19 -2 13 -5z m-163 -463 c0 -5 -5 -10 -11 -10 -5 0 -7 5 -4 10 3 6 8 10 11 10
2 0 4 -4 4 -10z m-80 -95 c0 -19 -2 -35 -5 -35 -9 0 -25 51 -19 61 12 20 24 7
24 -26z m40 -5 c0 -5 -4 -10 -10 -10 -5 0 -10 5 -10 10 0 6 5 10 10 10 6 0 10
-4 10 -10z m-157 -125 c1 -5 -6 -11 -15 -13 -11 -2 -18 3 -18 13 0 17 30 18
33 0z m67 -20 c0 -1 -9 -5 -19 -8 -13 -3 -18 -1 -14 9 4 10 33 10 33 -1z m-90
-119 c0 -8 -4 -18 -10 -21 -5 -3 -10 3 -10 14 0 12 5 21 10 21 6 0 10 -6 10
-14z m-100 -176 c0 -5 -5 -10 -11 -10 -5 0 -7 5 -4 10 3 6 8 10 11 10 2 0 4
-4 4 -10z m-30 -34 c0 -9 -30 -14 -35 -6 -4 6 3 10 14 10 12 0 21 -2 21 -4z
m110 -66 c0 -5 -5 -10 -11 -10 -5 0 -7 5 -4 10 3 6 8 10 11 10 2 0 4 -4 4 -10z
m-160 -20 c0 -5 -4 -10 -10 -10 -5 0 -10 5 -10 10 0 6 5 10 10 10 6 0 10 -4
10 -10z m-33 -76 c-3 -3 -12 -4 -19 -1 -8 3 -5 6 6 6 11 1 17 -2 13 -5z m-22
-44 c0 -7 -6 -15 -12 -17 -8 -3 -13 4 -13 17 0 13 5 20 13 18 6 -3 12 -11 12
-18z m-52 -25 c-7 -21 -13 -19 -13 6 0 11 4 18 10 14 5 -3 7 -12 3 -20z m107
-15 c0 -5 -2 -10 -4 -10 -3 0 -8 5 -11 10 -3 6 -1 10 4 10 6 0 11 -4 11 -10z
m-140 -20 c0 -5 -4 -10 -10 -10 -5 0 -10 5 -10 10 0 6 5 10 10 10 6 0 10 -4
10 -10z m60 -80 c0 -5 -10 -10 -22 -9 -22 0 -22 1 -3 9 11 5 21 9 23 9 1 1 2
-3 2 -9z m47 -56 c-3 -3 -12 -4 -19 -1 -8 3 -5 6 6 6 11 1 17 -2 13 -5z m-107
-64 c0 -5 -4 -10 -10 -10 -5 0 -10 5 -10 10 0 6 5 10 10 10 6 0 10 -4 10 -10z
m-420 -301 c0 -11 -4 -18 -10 -14 -5 3 -7 12 -3 20 7 21 13 19 13 -6z m63 7
c3 -8 3 -16 0 -19 -9 -10 -33 5 -33 19 0 18 26 18 33 0z m94 -122 c-3 -3 -12
-4 -19 -1 -8 3 -5 6 6 6 11 1 17 -2 13 -5z m-137 -44 c0 -5 -4 -10 -10 -10 -5
0 -10 5 -10 10 0 6 5 10 10 10 6 0 10 -4 10 -10z m-470 -342 c0 -4 -7 -8 -15
-8 -8 0 -15 4 -15 8 0 5 7 9 15 9 8 0 15 -4 15 -9z m-190 -18 c0 -5 -4 -10 -9
-10 -6 0 -13 5 -16 10 -3 6 1 10 9 10 9 0 16 -4 16 -10z m173 -30 c-10 -10
-22 -15 -28 -12 -5 3 -4 7 3 10 7 2 12 10 12 18 0 8 6 11 15 7 14 -5 14 -8 -2
-23z m167 -4 c0 -3 -4 -8 -10 -11 -5 -3 -10 -1 -10 4 0 6 5 11 10 11 6 0 10
-2 10 -4z"/>
<path d="M100 4220 c0 -5 7 -10 15 -10 8 0 15 5 15 10 0 6 -7 10 -15 10 -8 0
-15 -4 -15 -10z"/>
<path d="M96 4191 c-3 -5 1 -14 9 -21 12 -10 13 -16 4 -26 -9 -11 -7 -14 11
-14 16 0 20 4 16 16 -3 9 -6 24 -6 35 0 19 -24 26 -34 10z"/>
<path d="M8362 4110 c0 -14 2 -19 5 -12 2 6 2 18 0 25 -3 6 -5 1 -5 -13z"/>
<path d="M8412 4090 c0 -14 2 -19 5 -12 2 6 2 18 0 25 -3 6 -5 1 -5 -13z"/>
<path d="M310 4080 c0 -5 5 -10 10 -10 6 0 10 5 10 10 0 6 -4 10 -10 10 -5 0
-10 -4 -10 -10z"/>
<path d="M185 3988 c-10 -24 2 -55 16 -41 6 6 6 18 0 34 -8 21 -10 22 -16 7z"/>
<path d="M8480 3920 c0 -5 5 -10 10 -10 6 0 10 5 10 10 0 6 -4 10 -10 10 -5 0
-10 -4 -10 -10z"/>
<path d="M130 3910 c0 -5 4 -10 9 -10 6 0 13 5 16 10 3 6 -1 10 -9 10 -9 0
-16 -4 -16 -10z"/>
<path d="M136 3875 c4 -8 8 -15 10 -15 2 0 4 7 4 15 0 8 -4 15 -10 15 -5 0 -7
-7 -4 -15z"/>
<path d="M250 3879 c0 -5 5 -7 10 -4 6 3 10 8 10 11 0 2 -4 4 -10 4 -5 0 -10
-5 -10 -11z"/>
<path d="M142 3816 c1 -13 6 -22 10 -20 11 7 10 32 -2 39 -6 3 -9 -4 -8 -19z"/>
<path d="M8500 3820 c0 -5 7 -10 16 -10 8 0 12 5 9 10 -3 6 -10 10 -16 10 -5
0 -9 -4 -9 -10z"/>
<path d="M8497 3794 c-9 -10 2 -24 19 -24 8 0 14 7 14 15 0 15 -21 21 -33 9z"/>
<path d="M141 3771 c-8 -6 -9 -11 -3 -15 6 -3 14 -1 17 5 9 14 2 20 -14 10z"/>
<path d="M8470 3755 c0 -8 -5 -15 -11 -15 -6 0 -3 -7 6 -16 12 -13 19 -14 28
-5 8 8 7 11 -5 11 -11 0 -15 6 -11 20 3 11 3 20 -1 20 -3 0 -6 -7 -6 -15z"/>
<path d="M8420 3626 c0 -17 14 -29 23 -20 8 8 -3 34 -14 34 -5 0 -9 -6 -9 -14z"/>
<path d="M8410 3450 c0 -5 5 -10 11 -10 5 0 7 5 4 10 -3 6 -8 10 -11 10 -2 0
-4 -4 -4 -10z"/>
<path d="M190 3360 c0 -5 5 -10 10 -10 6 0 10 5 10 10 0 6 -4 10 -10 10 -5 0
-10 -4 -10 -10z"/>
<path d="M151 3324 c0 -11 3 -14 6 -6 3 7 2 16 -1 19 -3 4 -6 -2 -5 -13z"/>
<path d="M8435 3130 c-3 -5 -1 -10 4 -10 6 0 11 5 11 10 0 6 -2 10 -4 10 -3 0
-8 -4 -11 -10z"/>
<path d="M8440 2975 c0 -9 5 -15 11 -13 6 2 11 8 11 13 0 5 -5 11 -11 13 -6 2
-11 -4 -11 -13z"/>
<path d="M318 2763 c6 -2 18 -2 25 0 6 3 1 5 -13 5 -14 0 -19 -2 -12 -5z"/>
<path d="M342 2630 c-10 -17 -10 -20 3 -20 8 0 15 9 15 20 0 11 -1 20 -3 20
-1 0 -8 -9 -15 -20z"/>
<path d="M8277 2633 c-12 -19 1 -33 26 -32 16 1 17 3 5 6 -9 2 -18 12 -20 21
-3 13 -6 14 -11 5z"/>
<path d="M8261 2574 c0 -11 3 -14 6 -6 3 7 2 16 -1 19 -3 4 -6 -2 -5 -13z"/>
<path d="M8295 2410 c-3 -5 -1 -10 4 -10 6 0 11 5 11 10 0 6 -2 10 -4 10 -3 0
-8 -4 -11 -10z"/>
<path d="M8270 2383 c0 -15 19 -37 26 -31 3 4 -1 14 -10 23 -9 9 -16 13 -16 8z"/>
<path d="M8170 2309 c0 -11 5 -17 10 -14 6 3 10 13 10 21 0 8 -4 14 -10 14 -5
0 -10 -9 -10 -21z"/>
<path d="M8170 2150 c0 -11 5 -20 10 -20 6 0 10 9 10 20 0 11 -4 20 -10 20 -5
0 -10 -9 -10 -20z"/>
<path d="M610 1993 c0 -13 5 -23 10 -23 13 0 13 11 0 30 -8 12 -10 11 -10 -7z"/>
<path d="M7860 1690 c-6 -12 -8 -30 -5 -40 4 -14 2 -20 -9 -20 -9 0 -16 -4
-16 -10 0 -5 6 -10 14 -10 17 0 48 39 40 51 -3 5 0 18 6 29 9 16 8 20 -4 20
-9 0 -20 -9 -26 -20z"/>
<path d="M7935 1700 c-3 -5 -1 -10 4 -10 6 0 11 5 11 10 0 6 -2 10 -4 10 -3 0
-8 -4 -11 -10z"/>
<path d="M7890 1600 c0 -5 5 -10 10 -10 6 0 10 5 10 10 0 6 -4 10 -10 10 -5 0
-10 -4 -10 -10z"/>
<path d="M750 1570 c0 -6 7 -10 15 -10 8 0 15 2 15 4 0 2 -7 6 -15 10 -8 3
-15 1 -15 -4z"/>
<path d="M7800 1557 c0 -8 -11 -20 -25 -27 -27 -14 -34 -50 -10 -50 8 0 20 7
27 16 7 8 20 23 30 31 9 9 14 22 11 29 -7 18 -33 18 -33 1z"/>
<path d="M750 1525 c-7 -9 -11 -17 -9 -19 7 -7 49 13 49 24 0 15 -26 12 -40
-5z"/>
<path d="M728 1412 c-10 -2 -18 -12 -18 -23 0 -23 13 -25 30 -4 15 19 10 32
-12 27z"/>
<path d="M785 1381 c-3 -5 -1 -12 5 -16 5 -3 10 1 10 9 0 18 -6 21 -15 7z"/>
<path d="M736 1345 c-3 -9 0 -15 9 -15 16 0 20 16 6 24 -5 3 -11 -1 -15 -9z"/>
<path d="M779 1317 c-15 -11 -14 -15 11 -40 17 -18 31 -24 35 -18 10 18 25 12
25 -9 0 -11 5 -20 10 -20 17 0 11 29 -10 50 -11 11 -23 20 -26 20 -4 0 -12 7
-18 15 -9 11 -14 12 -27 2z"/>
<path d="M847 1193 c-12 -11 -8 -23 8 -23 8 0 15 7 15 15 0 16 -12 20 -23 8z"/>
<path d="M1030 1071 c0 -19 28 -37 39 -25 3 4 0 9 -6 11 -7 3 -13 11 -13 19 0
8 -4 14 -10 14 -5 0 -10 -9 -10 -19z"/>
<path d="M7462 1016 c4 -35 48 -59 48 -26 0 11 -7 20 -15 20 -7 0 -19 8 -25
18 -9 14 -10 12 -8 -12z"/>
<path d="M1090 990 c0 -5 5 -10 10 -10 6 0 10 5 10 10 0 6 -4 10 -10 10 -5 0
-10 -4 -10 -10z"/>
<path d="M1150 912 c0 -12 19 -26 26 -19 2 2 -2 10 -11 17 -9 8 -15 8 -15 2z"/>
<path d="M7225 820 c3 -5 8 -10 11 -10 2 0 4 5 4 10 0 6 -5 10 -11 10 -5 0 -7
-4 -4 -10z"/>
<path d="M7365 800 c3 -5 10 -10 16 -10 5 0 9 5 9 10 0 6 -7 10 -16 10 -8 0
-12 -4 -9 -10z"/>
<path d="M1385 649 c-10 -15 3 -25 16 -12 7 7 7 13 1 17 -6 3 -14 1 -17 -5z"/>
<path d="M1501 584 c0 -11 3 -14 6 -6 3 7 2 16 -1 19 -3 4 -6 -2 -5 -13z"/>
<path d="M7111 513 c-1 -14 -9 -23 -23 -26 -21 -3 -21 -4 -5 -12 24 -10 40 6
34 36 -4 23 -4 23 -6 2z"/>
<path d="M1510 496 c0 -9 5 -16 10 -16 6 0 10 4 10 9 0 6 -4 13 -10 16 -5 3
-10 -1 -10 -9z"/>
<path d="M6850 280 c0 -5 5 -10 11 -10 5 0 7 5 4 10 -3 6 -8 10 -11 10 -2 0
-4 -4 -4 -10z"/>
<path d="M6520 236 c0 -2 7 -6 15 -10 8 -3 15 -1 15 4 0 6 -7 10 -15 10 -8 0
-15 -2 -15 -4z"/>
<path d="M6500 200 c0 -5 5 -10 10 -10 6 0 10 5 10 10 0 6 -4 10 -10 10 -5 0
-10 -4 -10 -10z"/>
<path d="M6410 175 c0 -8 -4 -15 -9 -15 -5 0 -11 -9 -14 -20 -5 -18 -3 -18 27
-6 17 7 30 19 28 26 -2 7 3 17 10 21 9 6 4 9 -14 9 -18 0 -28 -5 -28 -15z"/>
<path d="M6526 161 c-3 -5 4 -11 16 -14 25 -7 33 -3 23 12 -8 13 -32 14 -39 2z"/>
</g>
</svg>
